<svg xmlns="http://www.w3.org/2000/svg" width="161" height="65" viewBox="0 0 161 65" fill="none"><g clip-path="url(#clip0_2926_64962)"><path d="M119.072 18.9346H129.737L128.393 25.4696C128.393 25.4696 132.004 18.5156 136.203 18.3481C140.401 18.1805 139.813 22.0345 139.058 22.621C138.386 23.2075 136.371 24.3804 134.523 21.8669C132.676 19.3535 129.485 25.9723 127.973 29.4911C126.462 33.01 124.363 44.2368 124.363 44.2368H118.82L124.446 20.1913H118.82L119.072 18.9346Z" fill="white"></path><path d="M139.562 18.9346H150.227L148.883 25.4696C148.883 25.4696 152.494 18.5156 156.693 18.3481C160.892 18.1805 160.304 22.0345 159.548 22.621C158.876 23.2075 156.861 24.3804 155.013 21.8669C153.166 19.3535 149.975 25.9723 148.464 29.4911C146.952 33.01 144.853 44.2368 144.853 44.2368H139.311L144.937 20.1913H139.311L139.562 18.9346Z" fill="white"></path><path d="M116.386 37.1994C116.386 37.1994 113.615 42.8966 111.012 42.729C108.408 42.6452 110.76 35.6913 111.096 34.3508C111.515 33.0103 114.706 19.1024 114.706 19.1024L109.248 19.0186L108.492 22.3699C108.492 22.3699 106.141 16.5051 98.8355 19.1862C91.5299 21.8672 88.8428 30.9157 88.5909 33.1778C88.339 35.4399 88.5069 42.9803 94.8888 44.656C101.355 46.3316 104.882 40.048 104.882 40.048C104.882 40.048 105.385 44.2371 108.744 44.9073C112.103 45.4938 116.722 39.5453 117.31 37.9534L116.386 37.1994ZM106.057 33.7643C104.798 39.3777 101.859 44.0695 97.408 43.7344C92.9574 43.483 93.4613 36.6967 94.9728 31.4184C94.9728 31.4184 96.5683 24.2131 99.0874 21.8672C101.607 19.5213 103.706 19.0186 106.141 20.778C108.576 22.6212 107.317 28.1509 106.057 33.7643Z" fill="white"></path><path d="M71.3768 53.7877C63.0635 51.5256 55.338 47.6716 49.208 43.9852C50.0478 40.6339 52.1471 31.753 53.1548 28.9044C54.4143 25.3855 58.2771 19.9397 61.3001 20.1072C64.3231 20.2748 63.5674 23.3748 63.4834 24.1288C63.3994 24.8828 58.613 44.1528 58.613 44.1528H64.0712C64.0712 44.1528 66.1705 32.0043 68.8576 27.0612C71.6287 22.118 74.8197 19.6883 76.919 20.2748C79.0183 20.9451 78.0946 24.7153 78.0946 24.7153C78.0946 24.7153 75.1556 37.1988 74.7357 38.5393C74.3159 39.8799 73.5601 43.6501 77.4228 44.6555C83.133 45.8284 87.2476 37.8691 87.2476 37.8691L86.156 37.1988C86.156 37.1988 85.2323 40.4663 82.2093 42.3096C79.1863 44.1528 79.6061 40.8853 79.858 40.0474C80.11 39.2096 82.2093 30.8314 83.133 25.218C84.0567 19.6045 80.4459 17.9289 76.1633 18.6829C71.9646 19.437 68.3538 25.3017 68.3538 25.3017C69.8653 19.6883 65.6667 17.6776 61.468 18.5992C57.2694 19.5208 53.5746 25.3017 53.5746 25.3017L54.8342 19.1019H44.4216L44.0857 20.3586H49.292L44.7575 41.3042C39.6352 37.8691 36.4442 35.2718 36.4442 35.2718C36.4442 35.2718 43.6658 3.93726 44.0017 2.68053C44.3376 1.42379 44.2537 1.08867 44.0017 1.00488C43.6658 1.00488 42.9941 1.67514 42.9941 1.67514L21.665 25.1342C15.8709 21.5315 10.6646 21.4478 7.38966 22.7045C3.77884 23.9612 2.85514 29.7422 6.63391 29.5746C10.4966 29.4071 9.65692 26.3909 9.40501 25.8044C9.23706 25.218 8.31336 24.5477 10.1608 23.7099C14.9472 22.7045 20.5734 26.1396 20.5734 26.1396L5.45829 42.8122H0.923769L0.503906 44.069H12.8479L13.3517 42.8122H7.22172L21.833 26.8936L30.6501 32.9259L27.795 44.069H34.5968L36.2762 37.3664C95.8968 89.3952 156.525 48.4257 156.525 48.4257L158.54 39.1258C126.211 60.6579 90.0187 58.7309 71.3768 53.7877ZM36.2762 11.3939L31.3219 31.2503C31.3219 31.3341 31.2379 31.4179 31.1539 31.4179H31.0699C30.986 31.4179 30.986 31.4179 30.902 31.4179L22.7567 25.8882C22.6727 25.8882 22.6727 25.8044 22.6727 25.7207C22.6727 25.6369 22.6727 25.5531 22.7567 25.5531L35.7724 11.3101C35.8564 11.2263 35.8564 11.2263 35.9404 11.2263H36.0243C36.1923 11.2263 36.2762 11.3101 36.2762 11.3939Z" fill="white"></path><path d="M155.013 52.8662C155.349 52.8662 155.685 52.95 155.937 53.1176C156.273 53.2851 156.525 53.5365 156.693 53.8716C156.861 54.2067 156.945 54.5419 156.945 54.877C156.945 55.2121 156.861 55.5472 156.693 55.7986C156.525 56.1337 156.273 56.3851 155.937 56.5526C155.601 56.7202 155.349 56.804 155.013 56.804C154.678 56.804 154.342 56.7202 154.09 56.5526C153.754 56.3851 153.502 56.1337 153.334 55.7986C153.166 55.4635 153.082 55.1283 153.082 54.877C153.082 54.5419 153.166 54.2067 153.334 53.8716C153.502 53.5365 153.754 53.2851 154.09 53.1176C154.342 52.95 154.678 52.8662 155.013 52.8662ZM155.013 53.2013C154.761 53.2013 154.51 53.2851 154.258 53.3689C154.006 53.5365 153.838 53.704 153.67 53.9554C153.502 54.2067 153.418 54.4581 153.418 54.7932C153.418 55.0446 153.502 55.3797 153.67 55.631C153.838 55.8824 154.006 56.0499 154.258 56.2175C154.51 56.3851 154.761 56.4689 155.097 56.4689C155.349 56.4689 155.685 56.3851 155.937 56.2175C156.189 56.0499 156.357 55.8824 156.525 55.631C156.693 55.3797 156.777 55.1283 156.777 54.7932C156.777 54.5419 156.693 54.2067 156.525 53.9554C156.357 53.704 156.189 53.5365 155.937 53.3689C155.517 53.2851 155.265 53.2013 155.013 53.2013ZM154.174 55.8824V53.7878H154.929C155.181 53.7878 155.349 53.7878 155.433 53.8716C155.517 53.8716 155.601 53.9554 155.685 54.0392C155.769 54.1229 155.769 54.2067 155.769 54.3743C155.769 54.5419 155.685 54.6256 155.601 54.7932C155.517 54.877 155.349 54.9608 155.181 54.9608C155.265 54.9608 155.349 55.0445 155.349 55.0445C155.433 55.1283 155.517 55.2959 155.685 55.4635L155.937 55.8824H155.517L155.349 55.5472C155.181 55.2959 155.097 55.1283 155.013 55.0445C154.929 54.9608 154.845 54.9608 154.761 54.9608H154.51V55.8824H154.174ZM154.51 54.7094H154.929C155.097 54.7094 155.265 54.7094 155.349 54.6256C155.433 54.5419 155.433 54.4581 155.433 54.3743C155.433 54.2905 155.433 54.2905 155.349 54.2067C155.265 54.1229 155.265 54.1229 155.181 54.1229C155.097 54.1229 155.013 54.1229 154.845 54.1229H154.51V54.7094Z" fill="white"></path></g><defs><clipPath id="clip0_2926_64962"><rect width="160.388" height="63.6745" fill="white" transform="translate(0 0.501953)"></rect></clipPath></defs></svg>