<svg xmlns="http://www.w3.org/2000/svg" width="193" height="47" viewBox="0 0 193 47" fill="none"><path fill-rule="evenodd" clip-rule="evenodd" d="M164.443 44.9502H184.295V31.7979H164.443V44.9502Z" fill="white"></path><path fill-rule="evenodd" clip-rule="evenodd" d="M164.443 44.9502H184.295V31.7979H164.443V44.9502Z" stroke="white" stroke-width="1.80211"></path><path fill-rule="evenodd" clip-rule="evenodd" d="M142.936 30.154H162.787V17.0039H142.936V30.154Z" fill="white"></path><path fill-rule="evenodd" clip-rule="evenodd" d="M142.936 30.154H162.787V17.0039H142.936V30.154Z" stroke="white" stroke-width="1.80211"></path><path fill-rule="evenodd" clip-rule="evenodd" d="M164.443 30.154H184.295V17.0039H164.443V30.154Z" fill="white"></path><path fill-rule="evenodd" clip-rule="evenodd" d="M164.443 30.154H184.295V17.0039H164.443V30.154Z" stroke="white" stroke-width="1.80211"></path><path fill-rule="evenodd" clip-rule="evenodd" d="M142.936 44.9502H162.787V31.7979H142.936V44.9502Z" fill="white"></path><path fill-rule="evenodd" clip-rule="evenodd" d="M142.936 44.9502H162.787V31.7979H142.936V44.9502Z" stroke="white" stroke-width="1.80211"></path><path fill-rule="evenodd" clip-rule="evenodd" d="M121.428 44.9502H141.281V31.7979H121.428V44.9502Z" fill="white"></path><path fill-rule="evenodd" clip-rule="evenodd" d="M121.428 44.9502H141.281V31.7979H121.428V44.9502Z" stroke="white" stroke-width="1.80211"></path><path fill-rule="evenodd" clip-rule="evenodd" d="M121.428 30.154H141.281V17.0039H121.428V30.154Z" fill="white"></path><path fill-rule="evenodd" clip-rule="evenodd" d="M121.428 30.154H141.281V17.0039H121.428V30.154Z" stroke="white" stroke-width="1.80211"></path><path fill-rule="evenodd" clip-rule="evenodd" d="M121.428 15.3584H141.281V2.20605H121.428V15.3584Z" fill="white"></path><path fill-rule="evenodd" clip-rule="evenodd" d="M121.428 15.3584H141.281V2.20605H121.428V15.3584Z" stroke="white" stroke-width="1.80211"></path><path fill-rule="evenodd" clip-rule="evenodd" d="M142.936 15.3584H162.787V2.20605H142.936V15.3584Z" fill="white"></path><path fill-rule="evenodd" clip-rule="evenodd" d="M142.936 15.3584H162.787V2.20605H142.936V15.3584Z" stroke="white" stroke-width="1.80211"></path><path fill-rule="evenodd" clip-rule="evenodd" d="M164.443 15.3584H184.295V2.20605H164.443V15.3584Z" fill="white"></path><path fill-rule="evenodd" clip-rule="evenodd" d="M164.443 15.3584H184.295V2.20605H164.443V15.3584Z" stroke="white" stroke-width="1.80211"></path><path fill-rule="evenodd" clip-rule="evenodd" d="M26.0052 18.8267H16.3814V10.5119H12.1386V37.0593H16.3814V26.9045H26.0052V38.9037L19.4908 45.0791H9.32828L2.27734 38.9026V8.67085L8.73127 2.49316H19.4908L26.0052 8.66974V18.8267Z" fill="white"></path><path fill-rule="evenodd" clip-rule="evenodd" d="M26.0052 18.8267H16.3814V10.5119H12.1386V37.0593H16.3814V26.9045H26.0052V38.9037L19.4908 45.0791H9.32828L2.27734 38.9026V8.67085L8.73127 2.49316H19.4908L26.0052 8.66974V18.8267Z" stroke="white" stroke-width="1.80211"></path><path fill-rule="evenodd" clip-rule="evenodd" d="M29.8848 45.0798H39.7482V36.8818H29.8848V45.0798Z" fill="white"></path><path fill-rule="evenodd" clip-rule="evenodd" d="M29.8848 45.0798H39.7482V36.8818H29.8848V45.0798Z" stroke="white" stroke-width="1.73003"></path><path fill-rule="evenodd" clip-rule="evenodd" d="M68.3154 45.0791H58.453V27.7927H54.33V45.0791H44.4688V2.49316H54.33V19.7751H58.4519V2.49316H68.3154V45.0802" fill="white"></path><path fill-rule="evenodd" clip-rule="evenodd" d="M68.3154 45.0791H58.453V27.7927H54.33V45.0791H44.4688V2.49316H54.33V19.7751H58.4519V2.49316H68.3154V45.0791Z" stroke="white" stroke-width="1.80211"></path><path fill-rule="evenodd" clip-rule="evenodd" d="M72.9121 45.0798H82.7745V36.8818H72.9121V45.0798Z" fill="white"></path><path fill-rule="evenodd" clip-rule="evenodd" d="M72.9121 45.0798H82.7745V36.8818H72.9121V45.0798Z" stroke="white" stroke-width="1.80211"></path><path fill-rule="evenodd" clip-rule="evenodd" d="M87.625 45.0791H101.922V2.49316H87.625V45.0791Z" fill="white"></path><path fill-rule="evenodd" clip-rule="evenodd" d="M87.625 45.0791H101.922V2.49316H87.625V45.0791Z" stroke="white" stroke-width="1.80211"></path><path fill-rule="evenodd" clip-rule="evenodd" d="M106.973 45.0798H116.834V36.8818H106.973V45.0798Z" fill="white"></path><path fill-rule="evenodd" clip-rule="evenodd" d="M106.973 45.0798H116.834V36.8818H106.973V45.0798Z" stroke="white" stroke-width="1.80211"></path><path fill-rule="evenodd" clip-rule="evenodd" d="M164.443 44.9501H184.295V31.7977H164.443V44.9501ZM142.937 30.1537H162.788V17.0036H142.937V30.1537ZM164.443 30.1537H184.295V17.0036H164.443V30.1537ZM142.937 44.9501H162.788V31.7977H142.937V44.9501ZM121.428 44.9501H141.281V31.7977H121.428V44.9501ZM121.428 30.1537H141.281V17.0036H121.428V30.1537ZM121.428 15.3584H141.281V2.20605H121.428V15.3584ZM142.937 15.3584H162.788V2.20605H142.937V15.3584ZM164.443 15.3584H184.295V2.20605H164.443V15.3584Z" fill="#D12138"></path><path fill-rule="evenodd" clip-rule="evenodd" d="M26.0052 18.8267H16.3815V10.5119H12.1386V37.0593H16.3815V26.9045H26.0052V38.9037L19.4908 45.0791H9.32828L2.27734 38.9026V8.67085L8.73127 2.49316H19.4908L26.0052 8.66974V18.8267ZM29.8852 45.0791H39.7487V36.8812H29.8852V45.0791ZM68.3142 45.0791H58.4518V27.7927H54.3288V45.0791H44.4676V2.49316H54.3288V19.7751H58.4507V2.49316H68.3142V45.0802M72.9132 45.0791H82.7756V36.8812H72.9132V45.0791ZM87.6256 45.0791H101.922V2.49316H87.6256V45.0791ZM106.975 45.0791H116.836V36.8812H106.975V45.0791Z" fill="white"></path><path fill-rule="evenodd" clip-rule="evenodd" d="M189.524 4.9106C189.616 4.91071 189.707 4.90774 189.798 4.9017C189.876 4.89612 189.953 4.87808 190.026 4.84827C190.092 4.82027 190.147 4.77383 190.186 4.7147C190.23 4.63782 190.251 4.55015 190.246 4.46202C190.249 4.3853 190.231 4.30914 190.192 4.24274C190.158 4.19026 190.111 4.14733 190.055 4.11808C189.993 4.08824 189.927 4.06833 189.859 4.05908C189.788 4.04914 189.715 4.04393 189.643 4.0435H189.079V4.9106H189.523H189.524ZM189.713 3.70067C190.04 3.70067 190.28 3.76523 190.436 3.89435C190.593 4.02235 190.671 4.21714 190.671 4.47983C190.671 4.72583 190.604 4.90504 190.465 5.01969C190.318 5.13788 190.139 5.20857 189.95 5.22227L190.734 6.42553H190.277L189.531 5.25344H189.079V6.42553H188.653V3.70067H189.713ZM187.775 5.84894C187.876 6.09271 188.01 6.30309 188.184 6.48118C188.363 6.66444 188.579 6.80976 188.816 6.90845C189.054 7.00714 189.309 7.05717 189.567 7.05554C189.823 7.0574 190.077 7.00743 190.312 6.90868C190.548 6.80993 190.762 6.66448 190.939 6.48118C191.113 6.30309 191.248 6.0916 191.348 5.84894C191.445 5.60518 191.495 5.34026 191.495 5.05308C191.495 4.77481 191.445 4.51657 191.348 4.27391C191.16 3.80582 190.793 3.43028 190.329 3.22871C190.088 3.12623 189.829 3.07467 189.567 3.07733C189.31 3.07521 189.054 3.12468 188.817 3.2228C188.579 3.32091 188.364 3.46565 188.184 3.64835C188.008 3.82851 187.87 4.04101 187.776 4.27391C187.677 4.52182 187.627 4.78634 187.628 5.05308C187.628 5.34026 187.678 5.60518 187.776 5.84894H187.775ZM187.391 4.137C187.574 3.71651 187.879 3.35921 188.266 3.10976C188.653 2.86031 189.106 2.72978 189.567 2.7345C190.027 2.73125 190.477 2.86251 190.862 3.11192C191.247 3.36132 191.55 3.71783 191.732 4.137C191.857 4.42084 191.922 4.72583 191.922 5.05308C191.925 5.36439 191.864 5.673 191.745 5.96071C191.625 6.24842 191.449 6.50941 191.226 6.72829C191.012 6.93755 190.762 7.10229 190.478 7.21805C190.189 7.33522 189.879 7.39461 189.567 7.39281C189.245 7.39281 188.942 7.33382 188.655 7.21805C188.222 7.04447 187.851 6.74498 187.592 6.35872C187.332 5.97247 187.196 5.51742 187.201 5.05308C187.201 4.72583 187.265 4.42084 187.392 4.137H187.391Z" fill="white"></path></svg>