<svg xmlns="http://www.w3.org/2000/svg" width="36" height="36" viewBox="0 0 36 36" fill="none"><path d="M33.8104 8.13011L31.6304 6.48011C31.2932 6.21738 30.8779 6.07471 30.4504 6.07471C30.0229 6.07471 29.6077 6.21738 29.2704 6.48011L10.0004 22.0601C8.82408 21.4387 7.46134 21.2682 6.16816 21.5806C4.87498 21.893 3.74035 22.6668 2.97738 23.7567C2.21441 24.8465 1.8756 26.1774 2.0246 27.4994C2.17359 28.8214 2.80013 30.0436 3.78653 30.9363C4.77293 31.829 6.05133 32.3308 7.3816 32.3475C8.71187 32.3643 10.0025 31.8947 11.011 31.0271C12.0196 30.1595 12.6766 28.9535 12.8588 27.6357C13.041 26.3178 12.7358 24.9788 12.0004 23.8701L15.9004 20.7501L29.2704 31.5201C29.6077 31.7828 30.0229 31.9255 30.4504 31.9255C30.8779 31.9255 31.2932 31.7828 31.6304 31.5201L33.8104 29.8801L20.9404 19.0001L33.8104 8.13011ZM7.45043 29.7501C6.88477 29.7501 6.33182 29.5824 5.8615 29.2681C5.39117 28.9539 5.0246 28.5072 4.80813 27.9846C4.59167 27.462 4.53503 26.8869 4.64538 26.3322C4.75574 25.7774 5.02813 25.2678 5.4281 24.8678C5.82808 24.4678 6.33769 24.1954 6.89247 24.0851C7.44726 23.9747 8.02231 24.0314 8.5449 24.2478C9.0675 24.4643 9.51417 24.8309 9.82843 25.3012C10.1427 25.7715 10.3104 26.3245 10.3104 26.8901C10.3078 27.6478 10.0056 28.3737 9.46984 28.9095C8.93406 29.4453 8.20814 29.7475 7.45043 29.7501Z" fill="#2E74EE"></path><path d="M14.3004 15.2402L12.0004 13.3802C12.7358 12.2715 13.041 10.9325 12.8588 9.61465C12.6766 8.2968 12.0196 7.09082 11.011 6.2232C10.0025 5.35559 8.71187 4.88605 7.3816 4.90278C6.05133 4.9195 4.77293 5.42134 3.78653 6.31404C2.80013 7.20673 2.17359 8.42886 2.0246 9.75087C1.8756 11.0729 2.21441 12.4038 2.97738 13.4936C3.74035 14.5835 4.87498 15.3573 6.16816 15.6697C7.46134 15.9821 8.82408 15.8116 10.0004 15.1902L12.1604 17.0002L14.3004 15.2402ZM7.45043 13.2402C6.88477 13.2402 6.33182 13.0725 5.8615 12.7582C5.39117 12.4439 5.0246 11.9973 4.80813 11.4747C4.59167 10.9521 4.53503 10.377 4.64538 9.82224C4.75574 9.26745 5.02813 8.75785 5.4281 8.35787C5.82808 7.95789 6.33769 7.68551 6.89247 7.57515C7.44726 7.4648 8.02231 7.52144 8.5449 7.7379C9.0675 7.95437 9.51417 8.32094 9.82843 8.79127C10.1427 9.26159 10.3104 9.81454 10.3104 10.3802C10.3078 11.137 10.0053 11.8619 9.46923 12.3961C8.93316 12.9303 8.20722 13.2302 7.45043 13.2302V13.2402Z" fill="#2E74EE"></path></svg>