<svg xmlns="http://www.w3.org/2000/svg" width="153" height="67" viewBox="0 0 153 67" fill="none"><g clip-path="url(#clip0_2926_65032)"><path d="M151.961 0H0.835938V66.6277H151.961V0Z" fill="#FED052"></path><path d="M0.835938 0L6.75501 5.91296H146.042L151.961 0H0.835938Z" fill="#FFDD87"></path><path d="M6.75501 60.7148L0.835938 66.6278H151.961L146.042 60.7148H6.75501Z" fill="#E99F11"></path><path d="M0.835938 0V66.6277L6.75501 60.7148V5.91296L0.835938 0Z" fill="#F6BA01"></path><path d="M151.96 0L146.041 5.91296V60.7148L151.96 66.6277V0Z" fill="#FBBF3C"></path><path d="M43.5043 45.2903V39.0502C43.5043 36.1567 41.1618 33.8418 38.2905 33.8418H18.1152V40.107C18.1152 42.9754 20.4577 45.3155 23.3291 45.3155H43.5043V45.2903Z" fill="#1C1C1A"></path><path d="M43.5043 20.5059V26.7459C43.5043 29.6395 41.1618 31.9544 38.2905 31.9544H18.1152V25.7143C18.1152 22.8459 20.4577 20.5059 23.3291 20.5059H43.5043Z" fill="#1C1C1A"></path><path d="M75.6677 22.3428H69.8242V42.3713H75.6677V22.3428Z" fill="#1C1C1A"></path><path d="M59.1203 39.201C59.1203 39.7797 59.4478 40.2075 60.1278 40.2075C60.8079 40.2075 61.1353 39.7545 61.1353 39.201V34.7474H68.1123V38.9242C68.1123 41.2642 66.9537 42.3713 64.6112 42.3713H56.2993C53.5791 42.3713 52.2441 41.0881 52.2441 38.3958V25.8151C52.2441 23.6512 53.9317 22.3428 55.9215 22.3428H64.0823C66.6262 22.3428 68.1375 23.8273 68.1375 26.3686V30.6964H61.1605V25.7647C61.1605 25.2112 60.8331 24.7583 60.153 24.7583C59.473 24.7583 59.1455 25.186 59.1455 25.7647V39.201H59.1203Z" fill="#1C1C1A"></path><path d="M79.9503 42.3967C78.4139 42.3967 77.1797 41.1386 77.1797 39.6038V31.3508C77.1797 29.8159 78.4391 28.583 79.9503 28.583H86.6754C88.2118 28.583 89.446 29.8159 89.446 31.3508V39.6038C89.446 41.1386 88.2118 42.3967 86.6754 42.3967H79.9503ZM83.2499 40.8115C83.7788 40.8115 84.2322 40.3838 84.2322 39.8302V31.4011C84.2322 30.8727 83.804 30.4198 83.2499 30.4198C82.6958 30.4198 82.2676 30.8475 82.2676 31.4011V39.8302C82.2676 40.3838 82.6958 40.8115 83.2499 40.8115Z" fill="#1C1C1A"></path><path d="M96.246 29.6152C96.6742 29.3132 97.6817 28.5332 99.2685 28.5332C101.032 28.5332 102.744 29.7661 102.744 31.779V38.9501C102.744 42.2462 100.301 42.3972 98.9411 42.3972C97.3039 42.3972 96.7749 42.0953 96.4223 41.9946C96.0697 41.894 95.9438 41.7933 95.9438 42.3972V47.0773H90.9062V28.6087H95.9438V29.2629C95.9438 29.5145 95.9438 29.8164 96.246 29.6152ZM96.8757 40.6359C97.4298 40.6359 97.858 40.2082 97.858 39.6546V31.6281C97.858 31.0997 97.4298 30.6468 96.8757 30.6468C96.3468 30.6468 95.8934 31.0745 95.8934 31.6281V39.6546C95.9186 40.183 96.3468 40.6359 96.8757 40.6359Z" fill="#1C1C1A"></path><path d="M116.824 28.583H121.887L124.658 36.2824L127.353 28.583H131.181C131.181 28.583 126.169 42.8748 125.539 44.6361C124.884 46.3974 124.255 46.7496 122.617 46.7496H117.555V44.8625H121.182C122.265 44.8625 122.592 44.4348 122.164 43.2773C121.66 41.8935 116.824 28.583 116.824 28.583Z" fill="#1C1C1A"></path><path d="M104.256 33.1375V31.9549C104.256 30.2187 105.465 28.6084 107.908 28.6084H112.92C115.036 28.6084 116.497 29.8916 116.497 31.8542V42.3969H111.736C111.333 42.3969 111.207 42.3214 111.182 42.0698C111.157 41.7427 111.157 41.5917 110.88 41.8434C110.553 42.1453 110.074 42.3969 108.991 42.3969H107.379C106.296 42.3969 104.23 41.8182 104.23 38.6982C104.23 36.8614 105.112 35.8549 106.497 35.1504C108.084 34.3704 110.326 33.2381 110.678 33.062C111.031 32.8859 111.182 32.8104 111.182 32.1562V31.5523C111.182 30.9484 110.88 30.3949 110.15 30.3949C109.495 30.3949 109.243 30.9736 109.243 31.5775V33.1123H104.256V33.1375ZM110.2 40.0066C110.729 40.0066 111.182 39.5788 111.182 39.0253V35.9052C111.182 35.3768 110.754 34.9239 110.2 34.9239C109.646 34.9239 109.218 35.3517 109.218 35.9052V39.0253C109.243 39.5788 109.671 40.0066 110.2 40.0066Z" fill="#1C1C1A"></path><path d="M137.429 29.9923C137.429 31.4265 136.321 32.5587 134.86 32.5587C133.399 32.5587 132.291 31.4265 132.291 29.9923C132.291 28.5581 133.399 27.4258 134.86 27.4258C136.321 27.4258 137.429 28.5581 137.429 29.9923ZM132.694 29.9923C132.694 31.2252 133.626 32.2065 134.86 32.2065C136.094 32.2065 137.026 31.2252 137.026 29.9923C137.026 28.7593 136.094 27.8032 134.86 27.8032C133.626 27.778 132.694 28.7593 132.694 29.9923ZM134.306 31.4768H133.928V28.5077H135.062C135.742 28.5077 136.019 28.8097 136.019 29.3381C136.019 29.8665 135.666 30.0929 135.263 30.1684L136.145 31.4768H135.717L134.885 30.1684H134.281V31.4768H134.306ZM134.785 29.8413C135.238 29.8413 135.666 29.8161 135.666 29.3381C135.666 28.9103 135.314 28.8348 134.961 28.8348H134.281V29.8665H134.785V29.8413Z" fill="#1C1C1A"></path></g><defs><clipPath id="clip0_2926_65032"><rect width="151.377" height="66.6781" fill="white" transform="translate(0.785156)"></rect></clipPath></defs></svg>