<svg xmlns="http://www.w3.org/2000/svg" width="93" height="44" viewBox="0 0 93 44" fill="none"><path d="M39 13C39 16.4545 36.3061 19 33 19C29.6939 19 27 16.4545 27 13C27 9.52119 29.6939 7 33 7C36.3061 7 39 9.52119 39 13ZM36.3735 13C36.3735 10.8413 34.8121 9.36429 33 9.36429C31.1879 9.36429 29.6265 10.8413 29.6265 13C29.6265 15.1371 31.1879 16.6357 33 16.6357C34.8121 16.6357 36.3735 15.1344 36.3735 13Z" fill="#EA4335"></path><path d="M52 13C52 16.4545 49.3061 19 46 19C42.6939 19 40 16.4545 40 13C40 9.5239 42.6939 7 46 7C49.3061 7 52 9.52119 52 13ZM49.3735 13C49.3735 10.8413 47.8121 9.36429 46 9.36429C44.1879 9.36429 42.6265 10.8413 42.6265 13C42.6265 15.1371 44.1879 16.6357 46 16.6357C47.8121 16.6357 49.3735 15.1344 49.3735 13Z" fill="#FBBC05"></path><path d="M65 7.35466V17.894C65 22.2293 62.2738 24 59.0508 24C56.0169 24 54.191 22.097 53.5024 20.5407L55.8956 19.6064C56.3217 20.5619 57.3659 21.6894 59.048 21.6894C61.111 21.6894 62.3895 20.4957 62.3895 18.2486V17.4043H62.2935C61.6783 18.1163 60.4929 18.7383 58.9972 18.7383C55.8674 18.7383 53 16.1815 53 12.8916C53 9.57792 55.8674 7 58.9972 7C60.4901 7 61.6754 7.62198 62.2935 8.31278H62.3895V7.35731H65V7.35466ZM62.5842 12.8916C62.5842 10.8245 61.1138 9.31325 59.2427 9.31325C57.3462 9.31325 55.7573 10.8245 55.7573 12.8916C55.7573 14.9376 57.3462 16.4277 59.2427 16.4277C61.1138 16.4277 62.5842 14.9376 62.5842 12.8916Z" fill="#4285F4"></path><path d="M69 1V18H66V1H69Z" fill="#34A853"></path><path d="M78.8543 14.9775L80.8871 16.3408C80.231 17.3174 78.65 19 75.9181 19C72.5302 19 70 16.3652 70 13C70 9.43192 72.5517 7 75.625 7C78.7199 7 80.2337 9.47791 80.7284 10.817L81 11.4986L73.0276 14.8206C73.638 16.0243 74.5871 16.6384 75.9181 16.6384C77.2518 16.6384 78.1767 15.9784 78.8543 14.9775ZM72.5974 12.8188L77.9267 10.5924C77.6336 9.8431 76.7516 9.32101 75.7138 9.32101C74.3828 9.32101 72.5302 10.5032 72.5974 12.8188Z" fill="#EA4335"></path><path d="M17.3688 11.293V8.6973H25.8739C25.9571 9.14968 26 9.68481 26 10.2641C26 12.2115 25.4823 14.6196 23.814 16.3354C22.1913 18.0732 20.118 19 17.3715 19C12.2807 19 8 14.7355 8 9.5C8 4.26452 12.2807 0 17.3715 0C20.1878 0 22.194 1.13647 23.7014 2.61774L21.9204 4.44933C20.8395 3.40665 19.3751 2.59567 17.3688 2.59567C13.6513 2.59567 10.7439 5.67683 10.7439 9.5C10.7439 13.3232 13.6513 16.4043 17.3688 16.4043C19.7801 16.4043 21.1533 15.4085 22.0331 14.5038C22.7465 13.77 23.2159 12.7218 23.401 11.2902L17.3688 11.293Z" fill="#4285F4"></path><path d="M4.13625 41.3686L3.8671 40.9473L4.13625 41.3686L7.5 39.2201L10.8637 41.3686C11.1867 41.575 11.5581 41.5207 11.8097 41.3291C12.0586 41.1394 12.2047 40.8082 12.1244 40.4531L11.2072 36.3987L14.2165 33.6886C14.7396 33.2175 14.5058 32.2639 13.732 32.1978L9.80012 31.8621L8.27592 28.0326L7.81136 28.2175L8.27592 28.0326C7.99326 27.3225 7.00674 27.3225 6.72408 28.0326L5.19988 31.8621L1.26796 32.1978C0.494213 32.2639 0.260351 33.2175 0.783465 33.6886L3.79283 36.3987L2.87563 40.4531C2.79531 40.8082 2.94138 41.1394 3.19026 41.3291C3.44186 41.5207 3.81326 41.575 4.13625 41.3686Z" fill="#FFCE31" stroke="#9F8B4B"></path><path d="M23.1362 41.3686L22.8671 40.9473L23.1363 41.3686L26.5 39.2201L29.8637 41.3686C30.1867 41.575 30.5581 41.5207 30.8097 41.3291C31.0586 41.1394 31.2047 40.8082 31.1244 40.4531L30.2072 36.3987L33.2165 33.6886C33.7396 33.2175 33.5058 32.2639 32.732 32.1978L28.8001 31.8621L27.2759 28.0326L26.8114 28.2175L27.2759 28.0326C26.9933 27.3225 26.0067 27.3225 25.7241 28.0326L24.1999 31.8621L20.268 32.1978C19.4942 32.2639 19.2604 33.2175 19.7835 33.6886L22.7928 36.3987L21.8756 40.4531C21.7953 40.8082 21.9414 41.1394 22.1903 41.3291C22.4419 41.5207 22.8133 41.575 23.1362 41.3686Z" fill="#FFCE31" stroke="#9F8B4B"></path><path d="M43.1362 41.3686L42.8671 40.9473L43.1363 41.3686L46.5 39.2201L49.8637 41.3686C50.1867 41.575 50.5581 41.5207 50.8097 41.3291C51.0586 41.1394 51.2047 40.8082 51.1244 40.4531L50.2072 36.3987L53.2165 33.6886C53.7396 33.2175 53.5058 32.2639 52.732 32.1978L48.8001 31.8621L47.2759 28.0326L46.8114 28.2175L47.2759 28.0326C46.9933 27.3225 46.0067 27.3225 45.7241 28.0326L44.1999 31.8621L40.268 32.1978C39.4942 32.2639 39.2604 33.2175 39.7835 33.6886L42.7928 36.3987L41.8756 40.4531C41.7953 40.8082 41.9414 41.1394 42.1903 41.3291C42.4419 41.5207 42.8133 41.575 43.1362 41.3686Z" fill="#FFCE31" stroke="#9F8B4B"></path><path d="M63.1362 41.3686L62.8671 40.9473L63.1363 41.3686L66.5 39.2201L69.8637 41.3686C70.1867 41.575 70.5581 41.5207 70.8097 41.3291C71.0586 41.1394 71.2047 40.8082 71.1244 40.4531L70.2072 36.3987L73.2165 33.6886C73.7396 33.2175 73.5058 32.2639 72.732 32.1978L68.8001 31.8621L67.2759 28.0326L66.8114 28.2175L67.2759 28.0326C66.9933 27.3225 66.0067 27.3225 65.7241 28.0326L64.1999 31.8621L60.268 32.1978C59.4942 32.2639 59.2604 33.2175 59.7835 33.6886L60.1154 33.3201L59.7835 33.6886L62.7928 36.3987L61.8756 40.4531C61.7953 40.8082 61.9414 41.1394 62.1903 41.3291C62.4419 41.5207 62.8133 41.575 63.1362 41.3686Z" fill="#FFCE31" stroke="#9F8B4B"></path><path d="M82.1362 41.3686L81.8671 40.9473L82.1363 41.3686L85.5 39.2201L88.8637 41.3686C89.1867 41.575 89.5581 41.5207 89.8097 41.3291C90.0586 41.1394 90.2047 40.8082 90.1244 40.4531L89.2072 36.3987L92.2165 33.6886C92.7396 33.2175 92.5058 32.2639 91.732 32.1978L87.8001 31.8621L86.2759 28.0326L85.8114 28.2175L86.2759 28.0326C85.9933 27.3225 85.0067 27.3225 84.7241 28.0326L83.1999 31.8621L79.268 32.1978C78.4942 32.2639 78.2604 33.2175 78.7835 33.6886L81.7928 36.3987L80.8756 40.4531C80.7953 40.8082 80.9414 41.1394 81.1903 41.3291C81.4419 41.5207 81.8133 41.575 82.1362 41.3686Z" fill="#FFCE31" stroke="#9F8B4B"></path></svg>