<svg xmlns="http://www.w3.org/2000/svg" width="194" height="78" viewBox="0 0 194 78" fill="none"><path fill-rule="evenodd" clip-rule="evenodd" d="M45.3624 28.2504H86.215V37.7038H59.1073V42.4299H78.578V50.5054H59.2979V55.4299H86.215V65.4899H45.1718L45.3624 28.2504ZM88.7048 28.1512H104.74C104.74 28.1512 101.304 19.3873 101.304 18.5998C101.304 17.8123 104.932 16.8265 105.885 16.6305C106.839 16.4334 112.377 15.6447 112.95 16.039C113.52 16.4334 107.793 17.614 107.793 17.614C107.793 17.614 104.739 18.4027 104.549 18.7958C104.358 19.1902 105.312 23.0296 105.79 24.2126C106.265 25.3944 107.792 29.4322 108.365 29.8254C108.938 30.2197 110.848 29.6294 112.662 28.9387C114.475 28.2492 117.958 26.5751 118.531 25.6896H122.206C122.206 25.6896 122.779 25.5916 122.779 25.0001C122.779 24.4098 121.062 22.8348 120.584 22.7356C120.109 22.6376 114.666 23.7203 113.904 23.9174C113.139 24.1146 110.752 24.6069 110.179 24.8041C109.609 25.0001 109.131 23.9174 108.939 23.0308C108.749 22.1453 108.939 20.1748 108.939 20.1748C108.939 20.1748 111.611 20.5691 112.28 20.7663C112.95 20.9623 114.763 22.6376 114.763 22.6376C114.763 22.6376 120.679 21.3566 121.157 21.3566C121.635 21.3566 123.543 23.5231 123.924 23.6211C124.305 23.7203 126.31 22.045 127.457 22.6364C126.789 24.0154 125.357 24.2126 125.166 25.8867C124.976 27.5609 125.357 28.5455 125.644 29.1359C125.93 29.7262 124.976 29.3319 124.976 29.3319C124.976 29.3319 122.971 28.15 122.685 27.0674C121.826 27.0674 118.963 26.6742 118.963 26.6742C118.963 26.6742 117.339 28.1512 117.339 28.5455C117.436 29.235 120.337 30.2687 121.92 30.81C123.639 31.4003 128.222 31.5975 128.222 31.5975C128.222 31.5975 129.463 28.8407 130.13 27.2646C130.798 25.6884 132.706 23.2279 132.706 22.8336C132.706 22.4393 127.551 17.1217 124.784 16.5314C122.399 15.5467 122.304 15.1524 122.207 14.7581C122.112 14.3649 122.685 13.4782 122.496 12.6907C122.304 11.9033 121.158 10.6234 121.158 10.6234C121.158 10.6234 120.299 11.1158 119.918 11.1158C119.537 11.1158 119.153 10.2291 119.153 10.2291L119.44 9.83595C119.44 9.83595 119.153 9.34479 118.772 9.34479C118.391 9.34479 117.627 11.4121 117.627 11.8064C117.627 12.2008 118.486 12.7911 118.486 13.1854C118.486 13.5797 116.292 13.6777 116.292 13.6777C116.292 13.6777 116.195 12.8902 116.386 12.2008C116.578 11.5113 116.673 11.3141 116.673 11.3141C116.673 11.3141 116.768 11.0189 116.292 10.9209C115.814 10.8229 115.433 10.3294 115.433 10.3294C115.433 10.3294 114.573 11.3141 114.479 11.7084C114.382 12.1028 115.146 14.2681 115.146 14.2681L115.908 13.8749C115.908 13.8749 116.865 14.1701 117.627 14.1701C118.391 14.1701 119.44 13.7757 119.726 14.1701C120.204 14.8596 118.678 15.647 117.532 15.7462C116.386 15.8442 116.195 14.8595 115.814 14.9575C115.433 15.0567 115.433 15.647 115.433 15.647C115.433 15.647 115.433 16.4357 115.908 16.6329C116.386 16.8289 118.486 17.3224 118.486 17.7155C117.818 17.9115 116.292 18.0107 115.527 17.9115C114.765 17.8135 114.86 17.124 114.479 16.1382C114.095 15.1535 113.522 13.6766 113.333 12.9871C113.141 12.2976 113.047 12.1016 112.952 11.6081C112.855 11.1158 113.428 10.1311 113.428 10.1311C113.428 10.1311 112.666 8.06381 112.666 6.48766C112.666 4.91152 114.001 3.63169 114.001 3.63169C114.001 3.63169 114.765 0.677734 120.492 0.677734C126.219 1.0709 127.746 5.40384 127.746 7.76748C127.746 11.4121 124.979 13.5774 124.979 13.5774C124.979 13.5774 124.787 14.9564 124.406 15.3507C124.025 15.745 124.595 15.941 124.979 16.0402C125.36 16.1382 129.751 17.7144 132.04 19.1913C134.332 20.6683 136.146 22.5396 136.241 23.2291C135.381 24.2138 133.091 26.9706 133.091 27.9552H135.764V65.5716H119.345L100.254 40.8549V65.4736H88.609L88.7048 28.1512ZM112.854 31.2533C112.951 32.14 115.337 37.5066 115.337 37.5066H113.237C114.191 42.1359 123.354 50.7516 124.357 50.8986C124.977 51.6371 124.118 49.9139 123.784 48.486C122.83 47.2551 122.208 38.9836 122.208 38.9836L124.786 39.0816C124.786 39.0816 125.167 33.911 125.167 33.862C121.253 32.8773 116.099 29.2339 116.099 29.2339C116.099 29.2339 113.332 30.614 112.854 31.2533ZM110.467 23.0308L111.612 23.4251V22.9328L110.467 22.7368V23.0308ZM111.899 22.2433C112.377 22.4405 113.236 23.5243 113.236 23.0308C113.236 22.5385 112.663 21.6518 111.993 21.5538C111.326 21.4558 110.564 21.4558 110.564 21.4558C110.564 21.4558 111.423 22.0461 111.899 22.2433ZM116.099 9.44162C116.48 9.44162 116.672 10.1311 116.766 9.63879C116.863 9.14646 116.004 8.75213 116.004 8.75213C116.004 8.75213 115.337 8.55497 115.337 9.0473C115.337 9.54079 115.718 9.44162 116.099 9.44162ZM116.766 3.04137C116.766 4.42035 118.39 6.88199 118.39 6.88199C118.39 6.88199 122.207 11.0178 122.78 10.8206C123.258 9.93395 120.777 6.48766 120.777 6.48766C120.777 6.48766 122.59 6.88199 124.308 9.24446C124.786 8.55497 123.354 5.89617 123.354 5.89617C123.354 5.89617 125.072 6.88083 125.837 7.76748C125.645 2.64705 121.158 1.46522 119.537 1.46522C117.912 1.46522 116.766 1.66239 116.766 3.04137ZM113.808 6.97999C113.808 7.96464 114.286 8.55613 114.286 8.55613C114.286 8.55613 115.526 7.57148 115.24 6.78282C115.107 6.41416 114.572 5.60101 114.572 5.60101C114.572 5.60101 113.808 5.99533 113.808 6.97999ZM152.362 28.2585H193.215V37.7131H166.107V42.4392H185.579V50.5148H166.299V55.438H193.215V65.4992H152.172L152.362 28.2585ZM42.5942 28.4557V37.9091H14.3409V55.438H33.0494V50.7096H24.0774V42.6364H42.5942V65.4817C42.5942 65.4817 22.359 65.6777 13.0048 65.6777C4.98666 65.6777 0.214844 56.6175 0.214844 52.2857V40.863C0.214844 35.7414 6.51452 28.2574 12.8142 28.2574C19.1139 28.2585 42.5942 28.4557 42.5942 28.4557ZM149.213 65.3347V27.996H138.077V65.3347H149.213Z" fill="white"></path></svg>