<svg xmlns="http://www.w3.org/2000/svg" width="276" height="49" viewBox="0 0 276 49" fill="none"><path d="M0.214844 0.677734H12.6154V23.3686H24.5782V32.3868H0.214844V0.677734Z" fill="white"></path><path d="M40.1884 13.3322H27.4961V8.53223H40.1884V13.3322ZM27.4961 15.0777H40.1884V32.3868H27.4961V15.0777Z" fill="white"></path><path d="M46.607 18.7145H42.668V12.169H46.607V10.2781C46.7528 4.31447 51.4213 1.84174 57.8404 1.69629C60.7582 1.69629 63.9677 2.13265 65.7184 2.42356V8.38721C65.1348 8.24175 64.5513 8.09629 62.9465 8.09629C61.3417 8.09629 59.7369 8.96902 59.7369 10.8599V12.0236H65.1348V18.569H59.7369V32.3872H46.607V18.7145Z" fill="white"></path><path d="M71.8462 12.1691V5.18724L84.5385 1.8418V12.1691H90.2281V18.7145H84.5385V22.6418C84.5385 24.5327 85.7056 25.5509 87.3104 25.5509C88.4775 25.5509 89.3528 25.4054 90.2281 25.1145V31.66C87.4562 32.3873 84.6844 32.8236 81.4748 32.8236C74.9098 32.8236 71.7003 30.06 71.7003 23.9509V18.5691H67.1777V12.0236L71.8462 12.1691Z" fill="white"></path><path d="M201.395 12.4591V5.47729L214.087 2.13184V12.4591H219.777V19.0046H214.087V22.9318C214.087 24.8227 215.254 25.8409 216.859 25.8409C218.026 25.8409 218.902 25.6955 219.777 25.4046V31.95C217.005 32.6773 214.233 33.1137 211.024 33.1137C204.459 33.1137 201.249 30.35 201.249 24.2409V18.8591H196.727V12.3137L201.395 12.4591Z" fill="white"></path><path d="M96.3555 0.677734H112.403L117.363 18.4232H117.509L122.324 0.677734H138.371V32.3868H127.284L126.992 8.24137L120.135 32.3868H113.862L107.151 8.24137H107.005L106.859 32.3868H96.3555V0.677734Z" fill="white"></path><path d="M143.185 19.0054C145.665 18.1327 148.874 17.4054 151.938 17.4054C155.148 17.4054 158.503 17.6963 158.649 20.1691C157.482 20.0236 155.439 19.8781 153.689 19.8781C147.416 19.8781 140.121 21.0418 140.121 27.1509C140.121 31.2236 144.79 32.969 149.75 32.969C153.251 32.969 156.461 31.9509 158.211 29.7691H158.357V32.3872H170.174V20.6054C170.174 13.4781 161.421 12.46 154.126 12.46C149.166 12.46 146.978 12.7509 143.185 13.6236V19.0054ZM158.649 24.5327C158.649 26.2781 157.336 28.0236 154.71 28.0236C152.813 28.0236 151.792 27.4418 151.792 26.1327C151.792 24.0963 154.856 23.9509 157.336 23.9509H158.649V24.5327Z" fill="white"></path><path d="M172.218 26.2781C174.698 27.2963 178.199 28.0235 181.555 28.0235C183.597 28.0235 186.077 27.7326 186.077 26.7145C186.077 24.2417 171.488 26.7145 171.488 19.0054C171.488 13.3326 179.95 12.3145 186.223 12.3145C189.433 12.3145 192.496 12.6054 195.122 13.1872V18.4235C193.08 17.6963 190.308 17.2599 187.536 17.2599C185.348 17.2599 183.159 17.4054 183.159 18.7145C183.159 20.7508 197.748 18.4235 197.748 25.8417C197.748 31.5145 189.141 32.969 183.305 32.969C179.658 32.969 175.865 32.5326 172.364 31.8054L172.218 26.2781Z" fill="white"></path><path d="M251.143 24.9691V23.8054C251.143 17.1145 247.642 12.46 237.43 12.46C226.78 12.46 221.236 15.8054 221.236 22.3509C221.236 29.1872 226.926 32.969 237.43 32.969C241.807 32.969 245.891 32.6781 249.247 31.8054V26.7145C247.204 27.4418 244.141 28.0236 240.64 28.0236C236.846 28.0236 233.783 27.4418 233.637 24.9691H251.143ZM233.637 20.7509C233.491 19.1509 234.075 16.8236 237.138 16.8236C240.056 16.8236 240.348 19.1509 240.348 20.7509H233.637Z" fill="white"></path><path d="M265.003 12.7508V17.2599H265.149C266.608 14.4963 269.088 12.3145 273.173 12.3145C273.902 12.3145 274.778 12.4599 275.215 12.4599V20.3145C274.632 20.169 273.465 20.0235 272.443 20.0235C268.942 20.0235 266.024 22.3508 266.024 25.2599V32.3872H253.332V12.7508H265.003Z" fill="white"></path><path d="M271.567 30.0593H270.838V32.3866H270.108V30.0593H269.379V29.4775H271.567V30.0593ZM273.61 31.223L274.193 29.4775H275.214V32.3866H274.485V30.4957L273.901 32.5321H273.318L272.734 30.4957V32.5321H272.005V29.623H273.026L273.61 31.223Z" fill="white"></path><path d="M274.631 36.6055V48.5327L0.214844 48.6782V36.7509L274.631 36.6055Z" fill="#D12138"></path><path d="M9.84375 46.6418H14.3663V44.169H17.8676C19.4724 44.169 20.7854 44.169 21.9525 43.4418C23.1196 42.8599 23.2655 42.1327 23.2655 41.5508C23.2655 41.1145 23.1196 40.3872 22.0984 39.8054C20.9313 39.2236 19.6183 39.0781 18.0135 39.0781H9.84375V46.6418ZM16.8464 40.6781C17.43 40.6781 18.743 40.6781 18.743 41.6963C18.743 42.1327 18.3053 42.569 17.5758 42.569C17.2841 42.569 17.1382 42.569 16.8464 42.569H14.2204V40.6781H16.8464Z" fill="white"></path><path d="M32.748 46.6418H37.2706V44.0236H38.5836L41.3555 46.6418H46.3157L42.8144 43.5872C43.5438 43.4418 44.1274 43.2963 44.7109 43.0054C45.7321 42.4236 45.878 41.8418 45.878 41.5508C45.878 40.8236 45.2945 39.8054 43.3979 39.369C42.5226 39.2236 41.2096 39.0781 39.8966 39.0781H32.748V46.6418ZM39.1671 40.6781C39.8966 40.6781 41.3555 40.6781 41.3555 41.5508C41.3555 42.4236 39.8966 42.4236 39.1671 42.4236H37.2706V40.6781H39.1671Z" fill="white"></path><path d="M63.2399 38.7871C58.1338 38.7871 55.5078 40.678 55.5078 42.8598C55.5078 44.6053 57.2585 46.9326 63.094 46.9326C68.7837 46.9326 70.8261 44.7507 70.8261 42.8598C70.972 40.9689 68.9296 38.7871 63.2399 38.7871ZM63.3858 40.678C63.8235 40.678 65.5741 40.678 66.1577 41.6962C66.3036 41.9871 66.4495 42.278 66.4495 42.7144C66.4495 44.1689 65.1365 44.8962 63.3858 44.8962C61.1975 44.8962 60.1762 44.1689 60.1762 42.8598C60.1762 41.2598 61.6351 40.678 63.3858 40.678Z" fill="white"></path><path d="M92.5615 39.0781V40.6781H85.8507V42.1327H92.1239V43.7327H85.8507V46.6418H81.3281V39.0781H92.5615Z" fill="white"></path><path d="M102.629 39.0781H113.862V40.6781H107.151V41.8418H113.425V43.4418H107.151V44.8963H114.446L114.592 46.6418H102.629V39.0781Z" fill="white"></path><path d="M126.992 44.0235C127.43 44.3144 127.722 44.6053 129.035 44.8962C129.618 45.0417 130.348 45.0417 131.077 45.0417C131.369 45.0417 133.265 45.0417 133.265 44.4598C133.265 44.4598 133.265 44.1689 132.536 44.0235C132.098 43.878 129.472 43.7326 128.743 43.5871C127.43 43.4417 124.804 43.0053 124.804 41.4053C124.804 41.1144 124.95 40.678 125.241 40.3871C126.117 39.2235 128.597 38.7871 131.223 38.7871C132.828 38.7871 134.432 38.9326 135.6 39.2235C136.621 39.5144 137.204 39.8053 137.642 40.0962L134.87 41.4053C134.578 41.2598 134.432 41.1144 133.703 40.9689C132.828 40.8235 131.806 40.678 131.077 40.678C130.348 40.678 129.472 40.8235 129.472 41.1144C129.472 41.4053 130.202 41.5507 131.369 41.6962C134.578 41.9871 137.642 42.278 137.642 44.1689C137.642 44.8962 137.058 45.478 136.329 45.9144C134.578 46.9326 131.661 46.9326 130.931 46.9326C129.91 46.9326 128.743 46.9326 127.576 46.6417C125.241 46.3507 124.22 45.6235 123.637 45.1871L126.992 44.0235Z" fill="white"></path><path d="M149.896 44.0235C150.334 44.3144 150.626 44.6053 151.939 44.8962C152.522 45.0417 153.252 45.0417 153.981 45.0417C154.273 45.0417 156.17 45.0417 156.17 44.4598C156.17 44.4598 156.17 44.1689 155.44 44.0235C155.003 43.878 152.377 43.7326 151.647 43.5871C150.334 43.4417 147.708 43.0053 147.708 41.4053C147.708 41.1144 147.854 40.678 148.146 40.3871C149.021 39.2235 151.501 38.7871 154.127 38.7871C155.732 38.7871 157.191 38.9326 158.504 39.2235C159.525 39.5144 160.109 39.8053 160.546 40.0962L157.774 41.4053C157.483 41.2598 157.337 41.1144 156.607 40.9689C155.732 40.8235 154.711 40.678 153.981 40.678C153.252 40.678 152.377 40.8235 152.377 41.1144C152.377 41.4053 153.106 41.5507 154.273 41.6962C157.483 41.9871 160.546 42.278 160.546 44.1689C160.546 44.8962 159.963 45.478 159.233 45.9144C157.483 46.9326 154.565 46.9326 153.835 46.9326C152.814 46.9326 151.647 46.9326 150.48 46.6417C148.146 46.3507 147.125 45.6235 146.541 45.1871L149.896 44.0235Z" fill="white"></path><path d="M170.758 38.9326H175.426V46.6417H170.904L170.758 38.9326Z" fill="white"></path><path d="M192.496 38.6416C187.39 38.6416 184.764 40.5325 184.764 42.7143C184.764 44.4598 186.514 46.7871 192.35 46.7871C198.04 46.7871 200.082 44.6052 200.082 42.7143C200.228 40.8234 198.185 38.6416 192.496 38.6416ZM192.496 40.678C192.933 40.678 194.684 40.678 195.268 41.6961C195.414 41.9871 195.559 42.278 195.559 42.7143C195.559 44.1689 194.246 44.8962 192.496 44.8962C190.307 44.8962 189.286 44.1689 189.286 42.7143C189.432 41.2598 190.891 40.678 192.496 40.678Z" fill="white"></path><path d="M210.441 38.9326H215.256L218.465 41.8417C219.195 42.569 219.487 42.8599 220.216 43.7326C220.07 43.0053 220.07 42.8599 220.07 41.9872V39.0781H224.301V46.6417H219.487L216.569 44.0235C215.693 43.2963 215.548 43.0053 214.526 41.9872C214.672 42.7144 214.672 42.8599 214.672 43.5872V46.6417H210.441V38.9326Z" fill="white"></path><path d="M233.344 46.4962H238.158L238.742 45.4781H243.702L244.285 46.4962H249.1L243.702 38.9326H238.596L233.344 46.4962ZM242.972 43.7326H239.909L241.513 41.1144L242.972 43.7326Z" fill="white"></path><path d="M258.584 38.9326H263.107V44.6053H268.65V46.4962H258.584V38.9326Z" fill="white"></path></svg>