<svg width="112" height="96" viewBox="0 0 112 96" fill="none" xmlns="http://www.w3.org/2000/svg">
<path d="M18.0048 76.6479L16.4788 78.5734H12.6239C11.9586 78.5734 11.3424 78.4764 10.7764 78.2824C10.2104 78.0885 9.72306 77.8219 9.31347 77.482C8.90387 77.1421 8.58328 76.739 8.34997 76.2726C8.11666 75.8062 8 75.3001 8 74.7553C8 74.2104 8.11666 73.712 8.34997 73.2607C8.58328 72.8095 8.90474 72.4207 9.31347 72.096C9.7222 71.7712 10.2104 71.5216 10.7764 71.3462C11.3424 71.1707 11.9577 71.083 12.6239 71.083H18.0048L16.4788 73.0313H12.6239C12.3025 73.0313 12.0044 73.076 11.7287 73.1654C11.453 73.2548 11.2163 73.3796 11.0175 73.5407C10.8188 73.701 10.6615 73.8933 10.5474 74.1176C10.4334 74.342 10.3755 74.5883 10.3755 74.8565C10.3755 75.1247 10.4308 75.3701 10.5423 75.5902C10.6529 75.8104 10.8101 75.9993 11.0123 76.1553C11.2145 76.3122 11.4539 76.4337 11.7296 76.5197C12.0052 76.6057 12.3033 76.6487 12.6248 76.6487H18.0048V76.6479Z" fill="#2E74EE"/>
<path d="M21.6869 78.5736L23.1214 76.6481H25.0484C25.2783 76.6481 25.5167 76.6481 25.7656 76.6481C26.0145 76.6481 26.2305 76.6557 26.4137 76.6709C26.3066 76.5368 26.1821 76.3664 26.0413 76.1615C25.8996 75.9565 25.7639 75.7642 25.6343 75.5846L24.2577 73.6025L20.6552 78.5745H17.8442L22.7654 71.8001C22.9261 71.5834 23.1283 71.3894 23.3737 71.2182C23.6183 71.0461 23.9285 70.9609 24.3027 70.9609C24.6621 70.9609 24.962 71.0411 25.2031 71.2013C25.4442 71.3616 25.6481 71.5614 25.8166 71.8001L30.6116 78.5745H21.6869V78.5736Z" fill="#2E74EE"/>
<path d="M39.7793 76.6478L38.242 78.5733H31.4621V71.082H33.8367V76.6469H39.7793V76.6478Z" fill="#2E74EE"/>
<path d="M42.9799 78.5733H40.6053V71.082H42.9799V78.5733Z" fill="#2E74EE"/>
<path d="M53.0634 71.082L51.5261 73.0303H46.8451V74.0045H52.627L51.1813 75.8296H46.8451V78.5733H44.4593V71.082H53.0634Z" fill="#2E74EE"/>
<path d="M58.9031 70.959C60.7688 70.959 62.1704 71.2685 63.108 71.8884C64.0447 72.5083 64.5131 73.4859 64.5131 74.8218C64.5131 76.1654 64.0464 77.1472 63.1132 77.7671C62.1799 78.387 60.7766 78.6965 58.9031 78.6965C57.0219 78.6965 55.616 78.387 54.6871 77.7671C53.7581 77.1472 53.2932 76.1654 53.2932 74.8218C53.2932 73.4859 53.7599 72.5075 54.6931 71.8884C55.6255 71.2694 57.0289 70.959 58.9031 70.959ZM58.9031 76.7482C59.4994 76.7482 60.0049 76.7238 60.4171 76.6757C60.8301 76.6268 61.1646 76.5323 61.4212 76.3898C61.677 76.2481 61.8628 76.0524 61.9777 75.8019C62.0926 75.5522 62.1497 75.225 62.1497 74.8218C62.1497 74.4187 62.0926 74.0923 61.9777 73.8418C61.8628 73.5921 61.6779 73.3982 61.4212 73.2598C61.1646 73.1215 60.8301 73.0287 60.4171 72.9798C60.004 72.9317 59.4994 72.9073 58.9031 72.9073C58.3069 72.9073 57.8014 72.9317 57.3892 72.9798C56.9761 73.0287 56.6417 73.1215 56.3851 73.2598C56.1284 73.3982 55.9435 73.5921 55.8286 73.8418C55.7137 74.0923 55.6566 74.4187 55.6566 74.8218C55.6566 75.225 55.7137 75.5514 55.8286 75.8019C55.9435 76.0524 56.1284 76.2481 56.3851 76.3898C56.6409 76.5315 56.9761 76.6268 57.3892 76.6757C57.8014 76.7246 58.306 76.7482 58.9031 76.7482Z" fill="#2E74EE"/>
<path d="M76.6046 78.5733H73.4272L71.718 76.5912H68.0697V78.5733H65.6951V74.7442H72.3721C72.7394 74.7442 73.0488 74.6699 73.3011 74.5198C73.5534 74.3705 73.6796 74.1656 73.6796 73.9041C73.6796 73.6131 73.5646 73.3947 73.3356 73.2488C73.1058 73.1029 72.7852 73.0303 72.3721 73.0303H65.6951L67.2436 71.082H72.1769C72.6132 71.082 73.0643 71.1208 73.5309 71.1993C73.9976 71.2777 74.4219 71.4177 74.8047 71.6193C75.1866 71.8209 75.5029 72.0933 75.7509 72.4366C75.9997 72.7798 76.1242 73.2201 76.1242 73.7582C76.1242 74.0492 76.0784 74.3258 75.9868 74.5864C75.8952 74.8479 75.763 75.0832 75.591 75.2915C75.4191 75.5007 75.2082 75.6778 74.9602 75.8237C74.7113 75.9696 74.4305 76.0717 74.1168 76.1316C74.2464 76.2286 74.3925 76.3517 74.5523 76.501C74.7131 76.6503 74.9265 76.8552 75.1944 77.1167L76.6046 78.5733Z" fill="#2E74EE"/>
<path d="M85.232 78.6965C85.079 78.6965 84.9278 78.6721 84.7792 78.624C84.6297 78.5751 84.4638 78.4654 84.2797 78.2934L79.5763 74.1724V78.5734H77.4194V72.3591C77.4194 72.1128 77.4557 71.9002 77.5283 71.7206C77.6009 71.5418 77.6968 71.3959 77.8152 71.2837C77.9336 71.1715 78.071 71.0897 78.2282 71.0374C78.3846 70.9851 78.5471 70.959 78.7156 70.959C78.8608 70.959 79.0085 70.9834 79.1572 71.0315C79.3067 71.0804 79.476 71.1901 79.6679 71.3621L84.3713 75.4831V71.083H86.5394V77.2863C86.5394 77.5326 86.5031 77.7451 86.4305 77.9248C86.3579 78.1036 86.262 78.2512 86.1436 78.3667C86.0252 78.4823 85.8852 78.5666 85.7245 78.6189C85.5646 78.6704 85.3996 78.6965 85.232 78.6965Z" fill="#2E74EE"/>
<path d="M90.3483 78.5733H87.9737V71.082H90.3483V78.5733Z" fill="#2E74EE"/>
<path d="M95.0747 78.5736L96.5091 76.6481H98.4361C98.666 76.6481 98.9045 76.6481 99.1533 76.6481C99.4022 76.6481 99.6182 76.6557 99.8014 76.6709C99.6943 76.5368 99.5698 76.3664 99.4281 76.1615C99.2864 75.9565 99.1508 75.7642 99.0211 75.5846L97.6446 73.6025L94.042 78.5745H91.231L96.1531 71.8001C96.3138 71.5834 96.516 71.3894 96.7614 71.2182C97.006 71.0461 97.3162 70.9609 97.6904 70.9609C98.0499 70.9609 98.3497 71.0411 98.5908 71.2013C98.8319 71.3616 99.0367 71.5614 99.2043 71.8001L104 78.5745H95.0747V78.5736Z" fill="#2E74EE"/>
<path d="M24.013 82.6002C23.6423 82.6305 23.5852 82.6921 23.5749 83.0581V83.6899C23.2413 83.8779 22.6935 84.0002 22.1664 84.0002C21.0914 84.0002 20.3456 83.2825 20.3456 82.2544C20.3456 81.2212 21.1069 80.457 22.124 80.457C22.3694 80.457 22.6192 80.5127 22.9112 80.635C23.0262 80.6805 23.0987 80.7016 23.1463 80.7016C23.2508 80.7016 23.2975 80.651 23.3761 80.4722H23.5118V81.6378H23.3865C23.2094 81.2608 23.0892 81.093 22.8646 80.8998C22.6451 80.7117 22.4265 80.6198 22.1862 80.6198C21.571 80.6198 21.2469 81.1697 21.2469 82.2181C21.2469 82.8237 21.3567 83.2462 21.5753 83.5262C21.7473 83.7455 21.9616 83.8366 22.2847 83.8366C22.6287 83.8366 22.7747 83.7244 22.7747 83.4697V82.9451C22.7643 82.6702 22.6909 82.6145 22.258 82.5993V82.472H24.0104V82.6002H24.013Z" fill="#E2363C"/>
<path d="M28.2479 83.9028H26.594V83.7805C26.6674 83.7704 26.7296 83.7653 26.7556 83.7653C26.9327 83.7501 27.001 83.7046 27.001 83.6025C27.001 83.4904 26.9388 83.3074 26.7659 82.9202H25.6184L25.5397 83.1184C25.4352 83.3681 25.3937 83.5056 25.3937 83.5713C25.3937 83.7038 25.5086 83.7594 25.8111 83.7797V83.902H24.7733V83.7797C25.0187 83.7341 25.0809 83.6624 25.2736 83.1943L26.4056 80.46H26.5516L27.6888 83.0822C27.9653 83.708 28.0224 83.7797 28.247 83.7797V83.9028H28.2479ZM26.6882 82.7271L26.1714 81.5151L25.6918 82.7271H26.6882Z" fill="#E2363C"/>
<path d="M32.8013 83.9025H31.7531L30.6945 82.3397H30.5588V83.3172C30.5692 83.679 30.6159 83.7296 31.0073 83.7802V83.9025H29.2808V83.7802C29.6723 83.7398 29.7189 83.6883 29.7293 83.3172V81.1125C29.7189 80.7456 29.6455 80.6748 29.2808 80.6545V80.5322H30.9287C31.868 80.5322 32.3683 80.8426 32.3683 81.4178C32.3683 81.6422 32.2845 81.8454 32.1385 81.9778C31.9976 82.1052 31.8671 82.1659 31.5647 82.2629L32.5921 83.6832C32.6388 83.7499 32.7071 83.7802 32.8004 83.7802V83.9025H32.8013ZM30.558 82.182C30.9494 82.1769 31.1214 82.1465 31.2571 82.0597C31.4238 81.9525 31.4973 81.7594 31.4973 81.4389C31.4973 80.9143 31.3046 80.7009 30.8345 80.7009C30.704 80.7009 30.6263 80.7262 30.5943 80.7777C30.5787 80.808 30.558 80.8797 30.558 80.9101V82.182Z" fill="#E2363C"/>
<path d="M37.2188 83.9028H35.5648V83.7805C35.6383 83.7704 35.7005 83.7653 35.7264 83.7653C35.9036 83.7501 35.9718 83.7046 35.9718 83.6025C35.9718 83.4904 35.9096 83.3074 35.7368 82.9202H34.5892L34.5106 83.1184C34.406 83.3681 34.3646 83.5056 34.3646 83.5713C34.3646 83.7038 34.4795 83.7594 34.7819 83.7797V83.902H33.7441V83.7797C33.9895 83.7341 34.0517 83.6624 34.2444 83.1943L35.3765 80.46H35.5225L36.6597 83.0822C36.9362 83.708 36.9932 83.7797 37.2179 83.7797V83.9028H37.2188ZM35.659 82.7271L35.1423 81.5151L34.6627 82.7271H35.659Z" fill="#E2363C"/>
<path d="M41.6367 82.6002C41.266 82.6305 41.2089 82.6921 41.1986 83.0581V83.6899C40.865 83.8779 40.3171 84.0002 39.79 84.0002C38.7151 84.0002 37.9693 83.2825 37.9693 82.2544C37.9693 81.2212 38.7306 80.457 39.7477 80.457C39.9931 80.457 40.2428 80.5127 40.5349 80.635C40.6498 80.6805 40.7224 80.7016 40.7699 80.7016C40.8745 80.7016 40.9212 80.651 40.9998 80.4722H41.1355V81.6378H41.0102C40.833 81.2608 40.7129 81.093 40.4882 80.8998C40.2688 80.7117 40.0501 80.6198 39.8099 80.6198C39.1946 80.6198 38.8706 81.1697 38.8706 82.2181C38.8706 82.8237 38.9803 83.2462 39.199 83.5262C39.3709 83.7455 39.5852 83.8366 39.9084 83.8366C40.2523 83.8366 40.3984 83.7244 40.3984 83.4697V82.9451C40.388 82.6702 40.3146 82.6145 39.8816 82.5993V82.472H41.6341V82.6002H41.6367Z" fill="#E2363C"/>
<path d="M42.5701 80.5322H45.5177V81.5351H45.3924C45.2619 80.873 45.0113 80.7001 44.1826 80.7001C43.9165 80.7001 43.8491 80.7456 43.8491 80.9345V82.0951C44.3969 82.1001 44.6 81.9171 44.6786 81.347H44.8091V83.0372H44.6786C44.6164 82.4569 44.4073 82.2629 43.8491 82.2629V83.4699C43.8491 83.6891 43.9432 83.7499 44.2716 83.7499C44.6631 83.7499 44.9396 83.6681 45.1738 83.485C45.3561 83.3425 45.4606 83.2 45.6222 82.8643H45.7631L45.56 83.9025H42.571V83.7802C42.9365 83.7499 43.0091 83.6883 43.0195 83.4243V81.0104C43.0091 80.7456 42.9149 80.6697 42.571 80.6545V80.5322H42.5701Z" fill="#E2363C"/>
<path d="M48.6457 83.7802C48.9326 83.7752 49.0683 83.6731 49.0683 83.4496V80.9902C49.0631 80.7557 48.9637 80.6798 48.6457 80.6545V80.5322H50.2055C51.3893 80.5322 52.0988 81.153 52.0988 82.187C52.0988 83.2151 51.3634 83.9025 50.2625 83.9025H48.6457V83.7802ZM49.8979 83.4395C49.8979 83.6638 49.9653 83.7296 50.1951 83.7296C50.5287 83.7296 50.7741 83.6175 50.946 83.3838C51.1128 83.1595 51.2122 82.7319 51.2122 82.2587C51.2122 81.8362 51.1387 81.4693 51.0039 81.2095C50.8268 80.8637 50.5658 80.7001 50.2003 80.7001C49.9972 80.7001 49.8979 80.7557 49.8979 80.873V83.4395Z" fill="#E2363C"/>
<path d="M56.7883 82.2281C56.7883 83.2663 56.0374 84.0001 54.9832 84.0001C53.9246 84.0001 53.1728 83.2671 53.1728 82.2331C53.1728 81.1949 53.9289 80.4561 54.9987 80.4561C56.0314 80.4569 56.7883 81.2101 56.7883 82.2281ZM54.0758 82.2795C54.0758 83.2924 54.3938 83.8373 54.978 83.8373C55.5725 83.8373 55.8853 83.2924 55.8853 82.2643C55.8853 81.2261 55.5569 80.6197 54.9935 80.6197C54.3938 80.6197 54.0758 81.1999 54.0758 82.2795Z" fill="#E2363C"/>
<path d="M61.4978 82.2281C61.4978 83.2663 60.7468 84.0001 59.6926 84.0001C58.6341 84.0001 57.8823 83.2671 57.8823 82.2331C57.8823 81.1949 58.6384 80.4561 59.7082 80.4561C60.7417 80.4569 61.4978 81.2101 61.4978 82.2281ZM58.7853 82.2795C58.7853 83.2924 59.1033 83.8373 59.6874 83.8373C60.2819 83.8373 60.5948 83.2924 60.5948 82.2643C60.5948 81.2261 60.2664 80.6197 59.703 80.6197C59.1033 80.6197 58.7853 81.1999 58.7853 82.2795Z" fill="#E2363C"/>
<path d="M66.0667 83.9025H65.0185L63.9599 82.3397H63.8243V83.3172C63.8346 83.679 63.8813 83.7296 64.2728 83.7802V83.9025H62.5462V83.7802C62.9377 83.7398 62.9843 83.6883 62.9947 83.3172V81.1125C62.9843 80.7456 62.9109 80.6748 62.5462 80.6545V80.5322H64.195C65.1343 80.5322 65.6346 80.8426 65.6346 81.4178C65.6346 81.6422 65.5508 81.8454 65.4048 81.9778C65.2639 82.1052 65.1334 82.1659 64.831 82.2629L65.8584 83.6832C65.9051 83.7499 65.9734 83.7802 66.0667 83.7802V83.9025ZM63.8243 82.182C64.2157 82.1769 64.3877 82.1465 64.5234 82.0597C64.6901 81.9525 64.7636 81.7594 64.7636 81.4389C64.7636 80.9143 64.5709 80.7009 64.1008 80.7009C63.9703 80.7009 63.8917 80.7262 63.8606 80.7777C63.845 80.808 63.8243 80.8797 63.8243 80.9101V82.182Z" fill="#E2363C"/>
<path d="M72.4402 83.9025H71.3921L70.3335 82.3397H70.1978V83.3172C70.2082 83.679 70.2549 83.7296 70.6463 83.7802V83.9025H68.9198V83.7802C69.3112 83.7398 69.3579 83.6883 69.3683 83.3172V81.1125C69.3579 80.7456 69.2845 80.6748 68.9198 80.6545V80.5322H70.5685C71.5079 80.5322 72.0082 80.8426 72.0082 81.4178C72.0082 81.6422 71.9244 81.8454 71.7783 81.9778C71.6375 82.1052 71.507 82.1659 71.2045 82.2629L72.232 83.6832C72.2787 83.7499 72.3469 83.7802 72.4402 83.7802V83.9025ZM70.1978 82.182C70.5893 82.1769 70.7613 82.1465 70.8969 82.0597C71.0637 81.9525 71.1371 81.7594 71.1371 81.4389C71.1371 80.9143 70.9444 80.7009 70.4744 80.7009C70.3439 80.7009 70.2652 80.7262 70.2341 80.7777C70.2186 80.808 70.1978 80.8797 70.1978 80.9101V82.182Z" fill="#E2363C"/>
<path d="M73.4047 80.5322H76.3523V81.5351H76.227C76.0965 80.873 75.8459 80.7001 75.0172 80.7001C74.751 80.7001 74.6836 80.7456 74.6836 80.9345V82.0951C75.2315 82.1001 75.4345 81.9171 75.5132 81.347H75.6437V83.0372H75.5132C75.451 82.4569 75.2418 82.2629 74.6836 82.2629V83.4699C74.6836 83.6891 74.7778 83.7499 75.1062 83.7499C75.4976 83.7499 75.7741 83.6681 76.0083 83.485C76.1907 83.3425 76.2952 83.2 76.4568 82.8643H76.5977L76.3946 83.9025H73.4056V83.7802C73.7711 83.7499 73.8437 83.6883 73.8541 83.4243V81.0104C73.8437 80.7456 73.7495 80.6697 73.4056 80.6545V80.5322H73.4047Z" fill="#E2363C"/>
<path d="M77.5309 83.7802C77.5828 83.7701 77.6355 83.76 77.651 83.76C77.8809 83.7347 77.9535 83.6276 77.9587 83.3172V81.1125C77.9483 80.7557 77.88 80.6798 77.5309 80.6545V80.5322H79.1736C80.0343 80.5322 80.5139 80.8578 80.5139 81.433C80.5139 81.8252 80.2892 82.1255 79.877 82.2832C79.6532 82.37 79.4804 82.3852 78.7865 82.3903V83.3172C78.7969 83.6891 78.8383 83.7347 79.235 83.7802V83.9025H77.5292V83.7802H77.5309ZM78.7874 82.2174C79.1529 82.2174 79.3197 82.182 79.4389 82.0799C79.5798 81.9677 79.6368 81.7796 79.6368 81.4591C79.6368 80.9244 79.4648 80.706 79.0423 80.706C78.8703 80.706 78.7865 80.7616 78.7865 80.8789V82.2174H78.7874Z" fill="#E2363C"/>
<path d="M84.4207 83.9028H82.7676V83.7805C82.8402 83.7704 82.9033 83.7653 82.9292 83.7653C83.1064 83.7501 83.1746 83.7046 83.1746 83.6025C83.1746 83.4904 83.1124 83.3074 82.9396 82.9202H81.792L81.7134 83.1184C81.6088 83.3681 81.5674 83.5056 81.5674 83.5713C81.5674 83.7038 81.6823 83.7594 81.9847 83.7797V83.902H80.9469V83.7797C81.1923 83.7341 81.2545 83.6624 81.4472 83.1943L82.5792 80.46H82.7253L83.8625 83.0822C84.139 83.708 84.196 83.7797 84.4207 83.7797V83.9028ZM82.8618 82.7271L82.3451 81.5151L81.8655 82.7271H82.8618Z" fill="#E2363C"/>
<path d="M87.1953 83.9025H85.4057V83.7802C85.7764 83.7499 85.875 83.6782 85.8801 83.4243V81.0104C85.8698 80.7507 85.7652 80.6748 85.4057 80.6545V80.5322H87.1953V80.6545C86.8246 80.6646 86.7157 80.7465 86.7105 81.0104V83.4235C86.7157 83.6832 86.8151 83.7592 87.1953 83.7794V83.9025Z" fill="#E2363C"/>
<path d="M91.655 83.9025H90.6069L89.5483 82.3397H89.4126V83.3172C89.423 83.679 89.4697 83.7296 89.8611 83.7802V83.9025H88.1346V83.7802C88.5261 83.7398 88.5727 83.6883 88.5831 83.3172V81.1125C88.5727 80.7456 88.4993 80.6748 88.1346 80.6545V80.5322H89.7833C90.7227 80.5322 91.223 80.8426 91.223 81.4178C91.223 81.6422 91.1392 81.8454 90.9931 81.9778C90.8523 82.1052 90.7218 82.1659 90.4193 82.2629L91.4468 83.6832C91.4935 83.7499 91.5617 83.7802 91.655 83.7802V83.9025ZM89.4118 82.182C89.8032 82.1769 89.9752 82.1465 90.1109 82.0597C90.2776 81.9525 90.3511 81.7594 90.3511 81.4389C90.3511 80.9143 90.1584 80.7009 89.6883 80.7009C89.5578 80.7009 89.4792 80.7262 89.4481 80.7777C89.4325 80.808 89.4118 80.8797 89.4118 80.9101V82.182Z" fill="#E2363C"/>
<path d="M53.021 57.8197H59.7171V64.2027H52.5353C51.628 64.2027 50.7881 64.0703 50.0164 63.8054C49.2448 63.5406 48.5794 63.1771 48.022 62.7132C47.4638 62.2502 47.0257 61.7002 46.7077 61.0643C46.3897 60.4284 46.2307 59.7385 46.2307 58.9954C46.2307 58.2523 46.3897 57.5725 46.7077 56.9569C47.0257 56.3412 47.4638 55.8115 48.022 55.3687C48.5802 54.9259 49.2448 54.5852 50.0164 54.3456C50.7881 54.1069 51.628 53.9863 52.5353 53.9863H55.3757L53.5248 56.6431H52.5353C52.0972 56.6431 51.6902 56.7038 51.3152 56.8261C50.9402 56.9484 50.6135 57.1213 50.337 57.3457C50.0605 57.57 49.8445 57.8315 49.688 58.1317C49.5316 58.432 49.453 58.7651 49.453 59.132C49.453 59.4989 49.5282 59.8321 49.6803 60.1323C49.8315 60.4326 50.0449 60.6898 50.3214 60.9032C50.598 61.1174 50.9237 61.2828 51.2996 61.4C51.6755 61.5172 52.0869 61.5754 52.5353 61.5754H56.4939V60.0944H51.0802L53.021 57.8197Z" fill="#2E74EE"/>
<path d="M76.4265 64.2028H72.0929L69.7615 61.4997H64.7859V64.2028H61.5471V58.9804H70.6533C71.1536 58.9804 71.5762 58.8791 71.921 58.675C72.2649 58.4718 72.4377 58.1918 72.4377 57.835C72.4377 57.4377 72.2813 57.14 71.9685 56.9418C71.6557 56.7436 71.2176 56.6441 70.6541 56.6441H54.5417L56.3823 53.9873H70.4061C70.9816 53.9873 71.5969 54.0404 72.2329 54.1476C72.8689 54.2547 73.4479 54.4453 73.9698 54.7202C74.4909 54.9952 74.9212 55.3671 75.2608 55.8352C75.5995 56.3033 75.7689 56.9039 75.7689 57.6368C75.7689 58.034 75.7067 58.4102 75.5814 58.767C75.4561 59.1237 75.2764 59.4442 75.0413 59.7293C74.8063 60.0144 74.5194 60.2565 74.1806 60.4547C73.8419 60.6529 73.4582 60.7937 73.0305 60.8747C73.2076 61.0071 73.4064 61.1749 73.625 61.3782C73.8436 61.5823 74.1357 61.8623 74.5012 62.2182L76.4265 64.2028Z" fill="#E2363C"/>
<path d="M41.879 61.5763C41.4409 61.5763 41.0339 61.5181 40.6598 61.4008C40.2839 61.2836 39.9581 61.1183 39.6816 60.9041C39.405 60.6907 39.1907 60.4343 39.0395 60.1332C38.8892 59.8321 38.8123 59.4989 38.8123 59.132C38.8123 58.766 38.89 58.4303 39.0482 58.125C39.2046 57.8188 39.4171 57.5574 39.6893 57.3389C39.9598 57.1205 40.2839 56.9493 40.6598 56.8261C41.0348 56.7047 41.4409 56.6439 41.879 56.6439L45.9378 56.6296C45.9638 56.5857 45.9439 56.5529 45.9724 56.5098C46.2774 55.6006 47.565 54.4831 48.6884 53.9863H41.8782C40.9708 53.9863 40.1309 54.1061 39.3593 54.3448C38.5867 54.5835 37.9231 54.9251 37.364 55.3687C36.8058 55.8106 36.3676 56.3403 36.0505 56.956C35.7308 57.5734 35.5735 58.2523 35.5735 58.9946C35.5735 59.7384 35.7308 60.4275 36.0505 61.0643C36.3676 61.6994 36.8058 62.2502 37.364 62.7132C37.9222 63.1762 38.5867 63.5406 39.3593 63.8046C40.1301 64.0703 40.9708 64.201 41.8782 64.201H48.5674C47.2911 63.6519 46.2066 62.5209 45.9024 61.5746H41.879V61.5763Z" fill="#E2363C"/>
<path d="M82.3054 44.05V66.733H78.3909V44.2626L56.1224 27.3874L33.6102 44.1108V66.733H29.6957V43.8721L56.144 24.2246L82.3054 44.05Z" fill="#2E74EE"/>
<path d="M95.3596 39.561H82.1437L56.3037 19.9802L29.9436 39.561H16.6413L56.3487 10L95.3596 39.561Z" fill="#E2363C"/>
<path d="M55.9996 27.2422L32.9248 44.2692H79.0752L55.9996 27.2422ZM56.0004 27.7002L76.2754 43.1398H35.6563L56.0004 27.7002Z" fill="#2E74EE"/>
<path d="M78.7528 45.1953H33.2489V46.3238H78.7528V45.1953Z" fill="#2E74EE"/>
<path d="M78.7528 47.249H33.2489V48.3775H78.7528V47.249Z" fill="#2E74EE"/>
<path d="M78.7528 49.3057H33.2489V50.4341H78.7528V49.3057Z" fill="#2E74EE"/>
</svg>
