<svg xmlns="http://www.w3.org/2000/svg" width="251" height="52" viewBox="0 0 251 52" fill="none"><path d="M229.521 45.9027C229.521 44.3277 228.237 43.0527 226.651 43.0527C225.065 43.0527 223.781 44.3277 223.781 45.9027C223.781 47.4777 225.065 48.7527 226.651 48.7527C228.237 48.6777 229.521 47.4777 229.521 45.9027Z" fill="#D12138"></path><path d="M32.1635 51.1527L31.1816 48.9027C57.9188 35.4027 93.1907 25.4277 125.668 25.4277C157.541 25.4277 190.774 34.6527 218.266 48.9027L217.284 51.0027C191.151 37.0527 156.937 27.6027 125.366 27.6777C93.3417 27.7527 57.239 37.2027 32.1635 51.1527Z" fill="#D12138"></path><path d="M30.4254 47.7033L21.6641 30.9033C54.4435 13.5783 89.942 4.65332 125.743 4.65332C161.015 4.65332 196.74 13.9533 228.311 30.7533L219.398 47.6283C188.356 31.6533 157.389 23.9283 124.836 23.9283C92.3589 23.8533 58.2955 32.8533 30.4254 47.7033Z" fill="#D12138"></path><path d="M20.7605 29.4777L19.7031 27.1527C52.4071 9.75275 88.8119 0.752734 124.99 0.677734C161.093 0.677734 196.214 9.22774 230.051 27.0027L228.918 29.1027C195.383 11.1027 160.564 2.85273 124.839 2.92773C89.114 3.00273 53.1623 12.1527 20.7605 29.4777Z" fill="#D12138"></path><path d="M213.357 17.2525C219.022 19.8025 224.536 22.5025 229.974 25.5025L218.644 5.47754L213.357 17.2525Z" fill="#D12138"></path><path d="M36.6944 17.2525C31.0298 19.8025 25.5162 22.5025 20.0781 25.5025L31.4074 5.47754L36.6944 17.2525Z" fill="#D12138"></path><path d="M236.998 44.7027L238.055 42.6027C234.505 40.5027 230.88 38.4777 227.255 36.6777L226.197 38.7027C229.823 40.5027 233.373 42.5277 236.998 44.7027Z" fill="#D12138"></path><path d="M13.1316 44.7027L12.0742 42.6027C15.6241 40.5027 19.1739 38.4777 22.8748 36.6777L23.9322 38.7027C20.2313 40.5027 16.6815 42.5277 13.1316 44.7027Z" fill="#D12138"></path><path d="M248.175 23.4026C240.018 18.4526 231.634 13.9525 223.1 9.97754L232.465 26.5525L228.009 35.1025C231.634 36.9775 235.184 38.9275 238.659 41.1025L248.175 23.4026Z" fill="#D12138"></path><path d="M1.87695 23.4026C10.0341 18.4526 18.3422 13.9525 26.9525 9.97754L17.5869 26.5525L21.9676 35.1025C18.3422 36.9775 14.7924 38.9275 11.318 41.1025L1.87695 23.4026Z" fill="#D12138"></path><path d="M219.703 4.05273L221.818 7.80273C231.259 11.7777 240.247 16.6527 248.933 22.0527L249.915 19.8027C240.096 13.8027 230.051 8.55273 219.703 4.05273Z" fill="#D12138"></path><path d="M30.4263 4.05273L28.3115 7.80273C18.8704 11.7777 9.88251 16.6527 1.19671 22.0527L0.214844 19.8027C9.95805 13.8027 20.0789 8.55273 30.4263 4.05273Z" fill="#D12138"></path><path d="M164.792 25.0529L159.807 24.1529L160.26 21.6779L161.997 21.9779L163.508 13.5029L161.997 13.2029L162.375 10.8779L166.982 11.6279C166.982 11.6279 173.855 12.8279 172.798 19.4279C171.589 26.3279 164.792 25.0529 164.792 25.0529Z" fill="white"></path><path d="M143.946 21.8277L138.961 21.3027L139.188 18.7527L140.925 18.9027L141.68 10.3527L140.169 10.2027L140.32 7.80273L145.003 8.17773C145.003 8.17773 151.952 8.70274 151.423 15.4527C150.819 22.5027 143.946 21.8277 143.946 21.8277Z" fill="white"></path><path d="M127.406 17.3277H131.409L131.787 18.5277L130.427 18.4527L130.352 21.0027L135.714 21.0777L135.79 18.6027L134.355 18.5277L130.503 7.42773H126.424L126.349 9.90275H127.859L124.385 18.3777H122.874L122.799 20.8527L128.161 21.0027L128.237 18.4527H126.953L127.406 17.3277Z" fill="white"></path><path d="M209.656 27.4533L210.789 25.2783L215.623 27.5283C215.623 27.5283 219.701 29.5533 218.191 32.7033C218.191 32.7033 217.285 34.7283 215.396 35.1033C215.396 35.1033 215.396 36.3033 215.17 37.0533C214.943 37.8033 214.641 39.1533 215.321 39.6033L216.605 40.3533L215.472 42.3783C215.472 42.3783 213.735 41.7783 213.13 41.0283C212.526 40.2783 211.998 39.6033 212.451 37.7283L212.677 36.2283C212.677 36.2283 213.13 34.9533 211.922 34.4283L210.789 33.9033L209.43 36.7533L210.94 37.4283L209.732 39.6033L204.596 37.2033L205.729 34.9533L207.239 35.7033L211.091 28.0533L209.656 27.4533Z" fill="white"></path><path d="M108.977 10.4277L108.826 7.95274L118.872 7.42773L119.098 12.2277L116.681 12.4527L116.53 9.97773L113.056 10.2027L113.131 13.2777L116.379 13.2027L116.53 15.6027L113.282 15.7527L113.358 18.7527L116.908 18.4527L116.832 16.2027L119.174 16.0527L119.476 20.8527L109.581 21.6027L109.43 18.9777L111.092 18.8277L110.714 10.3527L108.977 10.4277Z" fill="white"></path><path d="M198.63 20.9277C202.482 20.9277 205.654 24.0777 205.654 27.9027C205.654 31.7277 202.482 34.8777 198.63 34.8777C194.778 34.8777 191.605 31.7277 191.605 27.9027C191.605 24.0027 194.702 20.9277 198.63 20.9277Z" fill="white"></path><path d="M182.389 15.3779C186.241 15.3779 189.414 18.5279 189.414 22.3529C189.414 26.1779 186.241 29.3279 182.389 29.3279C178.537 29.3279 175.365 26.1779 175.365 22.3529C175.441 18.4529 178.537 15.3779 182.389 15.3779Z" fill="white"></path><path d="M105.653 21.7525L99.913 22.5025L99.6864 20.1025L101.273 19.8775L100.895 16.8025L96.1366 17.4026L96.5142 20.4775L98.1004 20.2525L98.4025 22.6526L92.8889 23.5525L92.5112 21.0776L94.1729 20.8525L92.9644 12.4526L91.3783 12.6775L91.0762 10.2776L96.6653 9.37755L96.9674 11.7776L95.4569 12.0025L95.8345 15.0025L100.593 14.3276L100.14 11.4026L98.5535 11.5525L98.2514 9.15256L103.916 8.47754L104.218 10.8775L102.481 11.1025L103.689 19.5776L105.351 19.3525L105.653 21.7525Z" fill="white"></path><path d="M75.5932 15.8278L75.0645 13.4278L80.2759 12.1528C80.2759 12.1528 84.7321 11.2528 85.5629 14.6278C85.5629 14.6278 86.0916 16.8028 84.8832 18.2278C84.8832 18.2278 85.6385 19.1278 85.9406 19.8778C86.2427 20.5528 86.8469 21.9028 87.7533 21.7528L89.1883 21.5278L89.6415 23.7778C89.6415 23.7778 87.9043 24.3778 86.998 24.2278C86.0161 24.0028 85.1853 23.7778 84.3545 22.0528L83.5992 20.7028C83.5992 20.7028 83.146 19.4278 81.862 19.8028L80.5781 20.1028L81.3333 23.1778L82.995 22.8028L83.4481 25.2778L77.9345 26.5528L77.4058 24.0778L79.0675 23.7028L77.1793 15.3778L75.5932 15.8278Z" fill="white"></path><path d="M60.2592 20.2525L59.5039 17.9275L69.4737 14.8525L70.8332 19.5776L68.4918 20.3276L67.7365 18.0025L64.3377 18.9775L65.2441 21.9775L68.3408 21.0776L69.0205 23.4026L65.9238 24.3025L66.7547 27.1526L70.1534 26.1025L69.5492 23.9275L71.8906 23.2525L73.1746 27.6775L63.658 30.9026L62.8272 28.4275L64.4133 27.8276L61.9963 19.7275L60.2592 20.2525Z" fill="white"></path><path d="M44.0991 26.2533L43.1172 23.9283L48.9329 21.6783L49.7637 23.9283L48.1021 24.6033L53.087 30.3033L52.9359 22.7283L51.3498 23.4033L50.3679 21.0783L56.1081 18.9033L57.0145 21.1533L55.4284 21.7533L55.5039 33.5283L53.4646 34.4283L45.6096 25.5783L44.0991 26.2533Z" fill="white"></path><path d="M37.6765 26.7783C41.5285 26.7783 44.7007 29.9283 44.7007 33.7533C44.7007 37.5783 41.5285 40.7283 37.6765 40.7283C33.8246 40.7283 30.6523 37.6533 30.6523 33.7533C30.7279 29.8533 33.8246 26.7783 37.6765 26.7783Z" fill="white"></path><path d="M143.039 19.2031L143.87 10.5781C143.87 10.5781 149.308 10.8031 149.006 15.1531C148.628 19.6531 145.003 19.3531 143.039 19.2031Z" fill="#D12138"></path><path d="M130.578 14.9283H128.312L129.521 11.7783L130.578 14.9283Z" fill="#D12138"></path><path d="M80.0495 17.8523L79.4453 14.7774L80.9559 14.4024C80.9559 14.4024 82.9196 13.8774 83.2973 15.4524C83.2973 15.4524 83.9015 17.0273 81.4091 17.5523L80.0495 17.8523Z" fill="#D12138"></path><path d="M164.111 22.2777L165.697 13.8027C165.697 13.8027 171.06 14.4777 170.38 18.7527C169.7 23.1777 166.075 22.6527 164.111 22.2777Z" fill="#D12138"></path><path d="M211.848 31.8033L213.283 29.0283L214.642 29.7033C214.642 29.7033 216.455 30.5283 215.851 31.9533C215.851 31.9533 215.322 33.5283 213.056 32.4033L211.848 31.8033Z" fill="#D12138"></path><path d="M198.628 23.2529C201.196 23.2529 203.235 25.3529 203.235 27.9029C203.235 30.4529 201.121 32.4779 198.628 32.4779C196.06 32.4779 193.945 30.3779 193.945 27.9029C193.945 25.2779 196.06 23.2529 198.628 23.2529Z" fill="#D12138"></path><path d="M182.39 17.7031C184.958 17.7031 186.997 19.8031 186.997 22.2781C186.997 24.8281 184.882 26.9281 182.39 26.9281C179.822 26.9281 177.707 24.8281 177.707 22.2781C177.707 19.8031 179.822 17.7031 182.39 17.7031Z" fill="#D12138"></path><path d="M37.6776 29.1025C40.2455 29.1025 42.3603 31.2025 42.3603 33.6775C42.3603 36.2275 40.2455 38.2525 37.6776 38.2525C35.1096 38.2525 33.0703 36.2275 33.0703 33.6775C33.0703 31.2025 35.1096 29.1025 37.6776 29.1025Z" fill="#D12138"></path><path d="M229.217 45.9034C229.217 47.3284 228.084 48.4534 226.724 48.4534C225.289 48.4534 224.156 47.3283 224.156 45.9783C224.156 44.5533 225.289 43.4283 226.649 43.4283C228.084 43.3533 229.217 44.4784 229.217 45.9034Z" fill="white"></path><path d="M225.594 47.3276H225.971V45.9775H227.029C227.709 45.9775 227.482 46.5775 227.558 46.8775L227.633 47.2525H228.162C228.011 47.0275 228.011 46.9525 228.011 46.5025C227.935 45.9775 227.935 45.9025 227.633 45.6775C227.935 45.4525 228.086 45.3025 228.086 44.9275C228.086 44.2525 227.557 44.1025 227.104 44.1025H225.594V47.3276Z" fill="#D12138"></path><path d="M227.028 44.6279C227.255 44.6279 227.632 44.7029 227.632 45.2279C227.632 45.6029 227.33 45.6779 227.028 45.6779H225.971V44.6279H227.028Z" fill="white"></path></svg>