<svg xmlns="http://www.w3.org/2000/svg" width="173" height="55" viewBox="0 0 173 55" fill="none"><g clip-path="url(#clip0_2926_65048)"><path fill-rule="evenodd" clip-rule="evenodd" d="M34.7887 40.476L36.8469 36.9844H49.7105L51.7687 40.476H58.8294L47.5094 19.7266H39.3053L27.7852 40.476H34.7887ZM39.3053 32.0331L43.3359 24.6778L47.4522 32.0331H39.3053Z" fill="white"></path><path fill-rule="evenodd" clip-rule="evenodd" d="M47.5094 19.7266H39.3053L27.7852 40.476H34.8173L36.8755 36.9844H49.7391L51.7973 40.476H58.858L47.5094 19.7266ZM39.3053 32.0331L43.3359 24.6778L47.4522 32.0331H39.3053Z" fill="white"></path><path fill-rule="evenodd" clip-rule="evenodd" d="M68.2348 40.4474V33.0062L79.9264 19.7266H72.3226L65.0332 27.9405L58.0868 19.7266H50.1113L61.803 33.0062V40.4474H68.2348Z" fill="white"></path><path fill-rule="evenodd" clip-rule="evenodd" d="M109.426 40.4474V19.7266H102.995V34.8951L90.4168 19.7266H80.8691V40.4474H87.301V25.3361L99.9931 40.4474H109.426Z" fill="white"></path><path fill-rule="evenodd" clip-rule="evenodd" d="M124.635 35.2954H123.892L123.206 35.2668L122.577 35.2382L121.977 35.1523L121.462 35.0664L120.976 34.952L120.576 34.7802L120.233 34.5799L119.89 34.3509L119.604 34.0647L119.404 33.7785L119.204 33.3779L119.032 32.9772L118.947 32.4906L118.861 31.9755V31.3745V28.4839V27.8256L118.947 27.2818L119.032 26.7953L119.204 26.366L119.347 25.9653L119.575 25.6505L119.804 25.3643L120.119 25.1353L120.462 24.9064L120.89 24.7347L121.376 24.6202L121.891 24.5343L122.434 24.4485L123.063 24.4198L123.778 24.3912H124.521H128.637H129.38L130.066 24.4198L130.695 24.4485L131.238 24.5343L131.753 24.6202L132.239 24.7347L132.668 24.935L133.011 25.1353L133.325 25.3357L133.611 25.6219L133.84 25.9653L134.011 26.3087L134.183 26.738L134.269 27.2246L134.354 27.7397V28.3694V31.2886V31.8896L134.269 32.4334L134.183 32.9199L134.011 33.3206L133.84 33.7213L133.611 34.0361L133.325 34.3223L133.011 34.5513L132.668 34.7516L132.239 34.9233L131.753 35.0378L131.238 35.1237L130.695 35.2095L130.066 35.2382L129.38 35.2668H128.637H124.635V35.2954ZM122.863 40.5042H130.438H131.81L133.068 40.4756L134.24 40.3897L135.326 40.2753L136.27 40.0749L137.184 39.846L137.928 39.4739L138.642 39.0446L139.185 38.5294L139.671 37.9857L140.072 37.356L140.386 36.6119L140.615 35.7819L140.786 34.8661L140.872 33.893L140.901 32.7768V26.967L140.872 25.8508L140.786 24.8778L140.615 23.9619L140.386 23.1319L140.072 22.4164L139.671 21.7868L139.185 21.1858L138.642 20.6993L137.985 20.2986L137.184 19.9551L136.327 19.7262L135.383 19.5258L134.326 19.4114L133.154 19.3255L131.839 19.2969H130.467H122.891H121.519L120.204 19.3255L119.061 19.4114L118.003 19.5258L117.031 19.7262L116.174 19.9551L115.43 20.2986L114.716 20.6993L114.116 21.2144L113.601 21.8154L113.201 22.4737L112.915 23.275L112.686 24.105L112.515 25.0495L112.429 26.0798L112.4 27.2246V32.8627L112.429 33.9216L112.515 34.9233L112.686 35.7819L112.915 36.6119L113.229 37.3274L113.63 37.957L114.116 38.5008L114.716 39.016L115.43 39.4453L116.259 39.8173L117.117 40.0463L118.118 40.2466L119.175 40.3611L120.319 40.447L121.576 40.4756H122.863V40.5042Z" fill="white"></path><path fill-rule="evenodd" clip-rule="evenodd" d="M149.361 40.476V24.8781H159.652L160.223 24.9068L160.709 25.0212L161.11 25.193L161.424 25.4505L161.653 25.7654L161.853 26.166L161.91 26.6526L161.967 27.1964L161.91 27.8546L161.853 28.5129L161.681 28.9708L161.453 29.3428L161.138 29.6004L160.738 29.8008L160.223 29.9152L159.652 29.9725H157.937L156.85 30.0011H151.733V35.1241H158.994H159.709L160.338 35.2099L160.824 35.353L161.224 35.5247L161.538 35.8109L161.738 36.2116L161.853 36.6695L161.881 37.2706V40.476H168.37V36.2116L168.313 35.4675L168.17 34.752L167.884 34.151L167.541 33.6358L167.055 33.1779L166.455 32.8059L165.798 32.491L164.997 32.2621L165.912 31.9759L166.655 31.5752L167.284 31.06L167.77 30.4304L168.113 29.6863L168.37 28.7704L168.485 27.6829L168.513 26.4809L168.485 25.5364L168.399 24.6778L168.285 23.8764L168.085 23.1609L167.827 22.5313L167.456 21.9875L167.055 21.501L166.598 21.1003L166.026 20.7569L165.397 20.4421L164.74 20.1845L163.94 20.0414L163.025 19.8983L162.082 19.8124L161.024 19.7266H159.88H142.9V40.476H149.361Z" fill="white"></path><path d="M17.8667 19.7266H0.886719V40.476H7.37571V24.8781H17.638L18.2383 24.9068L18.6957 25.0212L19.0959 25.193L19.4104 25.4505L19.6391 25.7654L19.8392 26.166L19.9249 26.6526L19.9535 27.1964L19.9249 27.8546L19.8392 28.5129L19.6962 28.9708L19.4961 29.3428L19.1817 29.6004L18.7815 29.8008L18.2669 29.9152L17.638 29.9725H15.9229L14.8366 30.0011H9.74834V35.1527H17.0092H17.7238L18.3527 35.2099L18.8101 35.353L19.2103 35.5247L19.5247 35.8109L19.7248 36.2116L19.8392 36.6695L19.8677 37.2706V40.476H26.3567V36.2116L26.3281 35.4675L26.1566 34.752L25.8708 34.151L25.5277 33.6358L25.0418 33.1779L24.4701 32.8059L23.784 32.491L23.0122 32.2621L23.8983 31.9759L24.6702 31.5752L25.2991 31.06L25.7564 30.4304L26.128 29.6863L26.3567 28.7704L26.4711 27.6829L26.4997 26.4809L26.4711 25.5364L26.3853 24.6778L26.271 23.8764L26.0709 23.1609L25.8136 22.5313L25.442 21.9875L25.0418 21.501L24.5844 21.1003L24.0413 20.7569L23.3838 20.4421L22.7263 20.2131L21.9259 20.0414L21.0398 19.8983L20.0678 19.8124L19.0102 19.7266H17.8667Z" fill="white"></path><path d="M82.4974 8.04774C112.484 8.04774 139.783 13.4283 160.108 17.0058C141.441 10.7952 113.599 6.8457 82.4974 6.8457C51.3674 6.8457 23.5247 10.7952 4.88672 17.0058C25.2399 13.4283 52.5108 8.04774 82.4974 8.04774Z" fill="white"></path><path d="M56.1695 16.1759L48.5371 11.2819V0.120117L56.1695 5.61514V16.1759Z" fill="white"></path><path d="M169.628 39.4719C169.628 38.7564 170.171 38.2127 170.886 38.2127C171.572 38.2127 172.115 38.7564 172.115 39.4719C172.115 40.216 171.572 40.7598 170.886 40.7598C170.171 40.7312 169.628 40.1874 169.628 39.4719ZM170.857 40.9888C171.686 40.9888 172.401 40.3591 172.401 39.4719C172.401 38.5847 171.686 37.9551 170.857 37.9551C170.028 37.9551 169.285 38.5847 169.285 39.4719C169.314 40.3591 170.028 40.9888 170.857 40.9888ZM170.543 39.5864H170.857L171.315 40.3591H171.601L171.086 39.5864C171.343 39.5578 171.543 39.4147 171.543 39.0999C171.543 38.7564 171.343 38.5847 170.915 38.5847H170.228V40.3591H170.514V39.5864H170.543ZM170.543 39.3575V38.8137H170.915C171.115 38.8137 171.286 38.8423 171.286 39.0713C171.286 39.3575 171.086 39.3575 170.857 39.3575H170.543Z" fill="white"></path><path d="M83.7541 45.4824C84.7547 45.4824 85.6408 45.5969 86.4126 45.8545L86.0124 47.4858C85.2978 47.1996 84.6117 47.0279 83.8971 47.0279C82.5535 47.0279 81.8675 47.9437 81.8675 49.804C81.8675 50.6912 82.0104 51.3781 82.3249 51.9219C82.6393 52.4371 83.0395 52.7233 83.5826 52.7233C83.9828 52.7233 84.3545 52.6374 84.6975 52.4657V51.0633C84.6975 50.4623 84.6689 50.033 84.6117 49.804H86.8986C86.8414 50.0616 86.8128 50.4623 86.8128 51.0633V53.1812C86.3269 53.5532 85.7552 53.8394 85.0691 54.0684C84.4116 54.2973 83.7827 54.4118 83.211 54.4118C82.0676 54.4118 81.1528 54.0111 80.4954 53.2098C79.8379 52.4084 79.5234 51.3209 79.5234 49.9471C79.5234 48.4875 79.8951 47.4 80.6097 46.6272C81.3529 45.8831 82.4106 45.4824 83.7541 45.4824Z" fill="white"></path><path d="M89.9582 46.8564C90.1583 46.3699 90.2726 45.9978 90.3298 45.7402H92.3594L94.732 52.2083C95.1037 53.21 95.3609 53.8683 95.561 54.2403H92.9883C92.9597 54.1259 92.9025 53.8683 92.8168 53.439L92.731 53.0383L92.5309 52.3514H92.4166C92.3022 52.3514 92.1021 52.3514 91.8163 52.3514H91.2446C90.6157 52.3514 90.2726 52.3514 90.1869 52.3514H90.044L89.7009 53.4676L89.5866 53.811C89.5866 53.8683 89.558 53.9828 89.5294 54.1259L89.5008 54.269H87.0996C87.3283 53.8397 87.5284 53.3531 87.6999 52.8952L87.9286 52.2656L89.9582 46.8564ZM91.5876 50.7487H92.0735L91.3017 48.0012L90.4727 50.7487H90.9015H91.5876Z" fill="white"></path><path d="M96.2479 46.9995C96.2479 46.4271 96.2193 46.0264 96.1621 45.7402H99.2494C100.107 45.7402 100.764 45.8833 101.165 46.1409C101.794 46.5416 102.108 47.1426 102.108 47.944C102.108 48.917 101.536 49.6039 100.364 49.976C101.079 50.1763 101.565 50.6056 101.765 51.2353L102.337 52.8952C102.337 52.9238 102.394 53.0669 102.48 53.3531C102.594 53.7538 102.708 54.04 102.823 54.2403H100.421C100.393 54.0686 100.307 53.7252 100.136 53.21L99.7353 51.9508C99.5924 51.4642 99.4495 51.1208 99.3066 50.9777C99.1922 50.8346 98.9635 50.7773 98.7063 50.7773H98.4204V52.9524C98.4204 53.5535 98.449 53.9828 98.5062 54.2117H96.1621C96.2193 53.9255 96.2479 53.4962 96.2479 52.9524V46.9995ZM98.449 47.2571V49.2032H98.792C99.5924 49.2032 99.9926 48.8598 99.9926 48.2015C99.9926 47.5719 99.621 47.2285 98.8492 47.2285H98.5347H98.449V47.2571Z" fill="white"></path><path d="M105.938 46.8564C106.138 46.3699 106.253 45.9978 106.31 45.7402H108.339L110.741 52.2083C111.112 53.21 111.369 53.8683 111.57 54.2403H108.997C108.968 54.1259 108.911 53.8683 108.825 53.439L108.711 53.0383L108.511 52.3514H108.397C108.282 52.3514 108.082 52.3514 107.796 52.3514H107.224C106.596 52.3514 106.253 52.3514 106.167 52.3514H106.024L105.709 53.4676L105.595 53.811C105.595 53.8683 105.567 53.9828 105.538 54.1259L105.509 54.269H103.137C103.365 53.8397 103.566 53.3531 103.737 52.8952L103.966 52.2656L105.938 46.8564ZM107.568 50.7487H108.053L107.282 48.0012L106.453 50.7487H106.881H107.568Z" fill="white"></path><path d="M115.629 45.4824C116.63 45.4824 117.516 45.5969 118.288 45.8545L117.887 47.4858C117.173 47.1996 116.458 47.0279 115.772 47.0279C114.429 47.0279 113.742 47.9437 113.742 49.804C113.742 50.6912 113.885 51.3781 114.2 51.9219C114.514 52.4371 114.915 52.7233 115.458 52.7233C115.858 52.7233 116.229 52.6374 116.572 52.4657V51.0633C116.572 50.4623 116.544 50.033 116.487 49.804H118.745C118.688 50.0616 118.659 50.4623 118.659 51.0633V53.1812C118.173 53.5532 117.573 53.8394 116.916 54.0684C116.258 54.2973 115.629 54.4118 115.086 54.4118C113.943 54.4118 113.028 54.0111 112.37 53.2098C111.713 52.4084 111.398 51.3209 111.398 49.9471C111.398 48.4875 111.77 47.4 112.485 46.6272C113.199 45.8831 114.257 45.4824 115.629 45.4824Z" fill="white"></path><path d="M120.002 47.0281C120.002 46.4557 119.973 46.0264 119.916 45.7402H125.262V47.3716C125.319 47.3716 125.262 47.3716 125.147 47.3716C125.033 47.3716 124.89 47.3716 124.747 47.3429L124.004 47.3143H122.231V49.0315H124.547C124.69 49.0315 124.804 49.0315 124.89 49.0029L125.004 48.9743V50.6342C124.69 50.6056 124.318 50.577 123.947 50.577H122.203V52.5518H124.89C125.061 52.5518 125.233 52.5518 125.433 52.5232V54.2117H119.916C119.973 53.9255 120.002 53.4962 120.002 52.9524V47.0281Z" fill="white"></path><path d="M129.693 46.9995C129.693 46.4271 129.665 46.0264 129.607 45.7402H133.552C134.41 45.7402 135.096 45.8833 135.525 46.1695C136.64 46.885 137.211 48.1157 137.211 49.8901C137.211 50.8346 137.011 51.6932 136.611 52.4373C136.211 53.1814 135.696 53.6679 135.039 53.9255C134.496 54.1259 133.752 54.2403 132.78 54.2403H129.607C129.665 53.9541 129.693 53.5248 129.693 52.9811V46.9995ZM131.923 47.2571V52.5804H132.609C133.209 52.5804 133.638 52.5232 133.924 52.4087C134.21 52.2942 134.41 52.0652 134.553 51.7504C134.781 51.2639 134.896 50.6629 134.896 49.9187C134.896 48.5736 134.553 47.7436 133.867 47.4574C133.524 47.3143 133.009 47.2285 132.352 47.2285H131.923V47.2571Z" fill="white"></path><path d="M139.184 53.5532C138.355 52.7519 137.926 51.5498 137.926 50.0044C137.926 48.602 138.297 47.4858 139.041 46.6845C139.784 45.8831 140.784 45.4824 142.071 45.4824C143.243 45.4824 144.129 45.8545 144.786 46.6272C145.444 47.4 145.758 48.4589 145.758 49.8326C145.758 51.2636 145.387 52.3798 144.672 53.1812C143.957 53.9825 142.928 54.4118 141.671 54.4118C140.584 54.4118 139.755 54.1256 139.184 53.5532ZM141.928 47.0565C141.413 47.0565 140.984 47.3141 140.699 47.8293C140.413 48.3444 140.27 49.0885 140.27 50.033C140.27 51.8933 140.784 52.8377 141.785 52.8377C142.871 52.8377 143.414 51.836 143.414 49.804C143.414 47.9724 142.928 47.0565 141.928 47.0565Z" fill="white"></path><path d="M147.728 53.5532C146.899 52.7519 146.471 51.5498 146.471 50.0044C146.471 48.602 146.842 47.4858 147.586 46.6845C148.329 45.8831 149.329 45.4824 150.616 45.4824C151.788 45.4824 152.674 45.8545 153.331 46.6272C153.989 47.4 154.303 48.4589 154.303 49.8326C154.303 51.2636 153.932 52.3798 153.217 53.1812C152.502 53.9825 151.473 54.4118 150.215 54.4118C149.129 54.4118 148.3 54.1256 147.728 53.5532ZM150.473 47.0565C149.958 47.0565 149.529 47.3141 149.244 47.8293C148.958 48.3444 148.815 49.0885 148.815 50.033C148.815 51.8933 149.329 52.8377 150.33 52.8377C151.416 52.8377 151.959 51.836 151.959 49.804C151.959 47.9724 151.473 47.0565 150.473 47.0565Z" fill="white"></path><path d="M155.535 46.9995C155.535 46.4271 155.506 46.0264 155.449 45.7402H158.536C159.394 45.7402 160.052 45.8833 160.452 46.1409C161.081 46.5416 161.395 47.1426 161.395 47.944C161.395 48.917 160.823 49.6039 159.651 49.976C160.366 50.1763 160.852 50.6056 161.052 51.2353L161.624 52.8952C161.624 52.9238 161.681 53.0669 161.767 53.3531C161.881 53.7538 161.995 54.04 162.11 54.2403H159.709C159.68 54.0686 159.594 53.7252 159.423 53.21L159.022 51.9508C158.88 51.4642 158.737 51.1208 158.594 50.9777C158.479 50.8346 158.251 50.7773 157.993 50.7773H157.708V52.9524C157.708 53.5535 157.736 53.9828 157.793 54.2117H155.449C155.506 53.9255 155.535 53.4962 155.535 52.9524V46.9995ZM157.736 47.2571V49.2032H158.079C158.88 49.2032 159.28 48.8598 159.28 48.2015C159.28 47.5719 158.908 47.2285 158.136 47.2285H157.822H157.736V47.2571Z" fill="white"></path><path d="M165.169 54.4118C164.254 54.4118 163.368 54.2687 162.453 53.9539L162.882 52.3512C163.654 52.666 164.34 52.8377 164.94 52.8377C165.312 52.8377 165.598 52.7519 165.798 52.6088C165.998 52.4371 166.112 52.2367 166.112 51.9791C166.112 51.7502 165.998 51.5498 165.798 51.3495C165.598 51.1492 165.169 50.8916 164.54 50.5195C163.625 50.0044 163.053 49.5178 162.825 49.0313C162.682 48.7165 162.596 48.3444 162.596 47.9724C162.596 47.2282 162.853 46.6272 163.396 46.1693C163.94 45.7114 164.626 45.4824 165.512 45.4824C166.226 45.4824 166.998 45.5969 167.856 45.7972L167.456 47.3713L167.256 47.3141C166.627 47.1138 166.169 47.0279 165.855 47.0279C165.569 47.0279 165.312 47.0851 165.14 47.2282C164.969 47.3713 164.854 47.5431 164.854 47.7434C164.854 47.9437 164.94 48.1155 165.083 48.2586C165.255 48.4017 165.683 48.6592 166.455 49.0885C167.141 49.4606 167.627 49.8613 167.913 50.2619C168.227 50.6626 168.37 51.1492 168.37 51.6929C168.37 52.3226 168.199 52.895 167.827 53.3815C167.456 53.868 166.97 54.1543 166.369 54.2974C166.055 54.3832 165.626 54.4118 165.169 54.4118Z" fill="white"></path></g><defs><clipPath id="clip0_2926_65048"><rect width="171.801" height="54.664" fill="white" transform="translate(0.628906 0.00683594)"></rect></clipPath></defs></svg>