<svg xmlns="http://www.w3.org/2000/svg" width="203" height="64" viewBox="0 0 203 64" fill="none"><g clip-path="url(#clip0_2926_64951)"><path d="M186.06 0.678713H16.3771C14.2544 0.67777 12.1523 1.09771 10.191 1.91454C8.22966 2.73137 6.44757 3.92906 4.94658 5.43916C3.44559 6.94926 2.25512 8.74216 1.44322 10.7154C0.631319 12.6886 0.213909 14.8035 0.214845 16.9391V47.4165C0.213909 49.5521 0.631319 51.667 1.44322 53.6402C2.25512 55.6134 3.44559 57.4063 4.94658 58.9164C6.44757 60.4265 8.22966 61.6242 10.191 62.441C12.1523 63.2578 14.2544 63.6778 16.3771 63.6769H185.675V59.2318H16.3771C13.263 59.2299 10.277 57.9844 8.07493 55.7691C5.87291 53.5537 4.63499 50.5495 4.63311 47.4165V16.9391C4.63499 13.806 5.87291 10.8019 8.07493 8.5865C10.277 6.37111 13.263 5.12568 16.3771 5.12378H186.06C189.173 5.12758 192.157 6.37385 194.357 8.58903C196.558 10.8042 197.795 13.8073 197.797 16.9391V47.0508H202.215V16.9391C202.216 14.8041 201.799 12.6898 200.987 10.717C200.176 8.74429 198.986 6.9517 197.486 5.4417C195.985 3.93169 194.204 2.73385 192.244 1.9166C190.283 1.09935 188.182 0.678712 186.06 0.678713Z" fill="#E3000F"></path><path d="M192.448 50.7094L189.324 53.8525L199.09 63.6774L202.214 60.5343L192.448 50.7094Z" fill="#E3000F"></path><path fill-rule="evenodd" clip-rule="evenodd" d="M162.457 14.0215V49.3168H171.757V35.3076C174.066 39.8029 175.405 44.6638 177.151 49.367H187.42L180.337 34.5333C184.185 34.5333 185.831 28.64 185.831 25.5428C185.831 18.6171 181.669 14.0215 174.686 14.0215H162.457ZM171.807 30.3464H171.707V21.6641H172.163C172.73 21.6877 173.286 21.8233 173.801 22.0632C174.315 22.3031 174.778 22.6426 175.162 23.0624C175.546 23.4821 175.844 23.9739 176.039 24.5096C176.235 25.0453 176.323 25.6144 176.3 26.1845C176.276 26.7546 176.142 27.3144 175.903 27.8321C175.665 28.3498 175.327 28.8152 174.91 29.2016C174.493 29.5881 174.004 29.8881 173.471 30.0845C172.939 30.2809 172.373 30.3699 171.807 30.3464Z" fill="white"></path><path fill-rule="evenodd" clip-rule="evenodd" d="M14.2033 37.6372V48.4846C16.5193 49.2589 18.479 49.983 20.9376 49.983C27.9712 49.983 32.3894 45.0218 32.3894 38.0459C32.3894 28.4388 23.4531 27.7648 23.4531 24.2016C23.4531 23.0115 24.8784 22.1798 25.8689 22.1798C28.3346 22.1798 30.1447 24.1443 31.5699 25.9008V15.1036C29.5389 13.9879 27.2564 13.4175 24.9425 13.4474C18.0087 13.4474 14.1035 18.2581 14.1035 24.9759C14.1035 33.5793 23.0398 35.2067 23.0398 39.0854C23.0398 40.5193 21.6146 41.4585 20.3176 41.4585C18.1797 41.4585 15.3862 39.3937 14.1534 37.6372H14.2033Z" fill="white"></path><path fill-rule="evenodd" clip-rule="evenodd" d="M66.6031 14.0215L62.4414 49.367H72.6105C73.0737 42.1975 73.6438 34.899 73.7935 27.7152L77.0288 49.367H84.6824L88.9581 27.9231L89.6707 49.367H99.5334L96.2981 14.0215H84.5327C83.25 19.9076 82.2167 25.8511 81.2404 31.7946C80.8841 28.9268 80.6774 26.1594 80.2142 23.3705C79.751 20.2733 79.0313 17.1689 78.5752 14.0502H66.6031V14.0215Z" fill="white"></path><path fill-rule="evenodd" clip-rule="evenodd" d="M104.513 14.0215L100.352 49.367H110.471C110.984 42.1975 111.547 34.899 111.704 27.7152L114.946 49.367H122.6L126.875 27.9231L127.588 49.367H137.444L134.187 14.0215H122.429C121.139 19.9076 120.113 25.8511 119.136 31.7946C118.78 28.9268 118.573 26.1594 118.11 23.4207C117.647 20.2733 116.927 17.1689 116.521 14.0215H104.513Z" fill="white"></path><path fill-rule="evenodd" clip-rule="evenodd" d="M140.574 14.0215V49.367H158.297V41.0432H150.081V35.3076H157.478V27.3997H150.13V22.2879H158.454V14.0215H140.574Z" fill="white"></path><path fill-rule="evenodd" clip-rule="evenodd" d="M47.9609 13.2393C38.255 13.2393 34.6562 23.1618 34.6562 31.4354C34.6562 39.7089 37.5851 49.9326 47.6046 49.9326C57.2108 49.9326 61.2157 39.8595 61.2157 31.5859C61.2157 23.1116 57.9804 13.2393 47.9609 13.2393ZM47.9609 22.2871C51.0965 22.2871 51.4599 29.1627 51.4599 31.4354C51.4599 33.8587 51.2532 40.8919 47.8113 40.8919C44.8824 40.8919 44.3194 34.3247 44.3194 32.2097C44.3194 29.937 44.7256 22.2871 47.9609 22.2871Z" fill="white"></path></g><defs><clipPath id="clip0_2926_64951"><rect width="202" height="63" fill="white" transform="translate(0.214844 0.677734)"></rect></clipPath></defs></svg>