<svg xmlns="http://www.w3.org/2000/svg" width="294" height="55" viewBox="0 0 294 55" fill="none"><g clip-path="url(#clip0_2926_64969)"><path d="M168.414 37.8735V9.42188H180.797C181.577 9.42188 182.406 9.42188 183.283 9.47027C184.21 9.51865 185.087 9.61542 186.014 9.80897C186.94 10.0025 187.817 10.2928 188.695 10.7283C189.572 11.1638 190.352 11.7445 191.035 12.4703C191.718 13.2445 192.254 14.067 192.595 15.0348C192.985 16.0025 193.229 17.0187 193.424 18.0348C193.619 19.0509 193.716 20.067 193.716 21.0348C193.765 22.0025 193.765 22.8735 193.765 23.5993C193.765 26.8896 193.424 29.5025 192.693 31.438C191.961 33.3735 190.938 34.7767 189.67 35.7445C188.402 36.7122 186.842 37.2928 185.087 37.5348C183.332 37.7767 181.382 37.9219 179.335 37.9219H168.414V37.8735ZM175.776 34.0993L177.141 34.1477H178.506C179.042 34.1477 179.53 34.0993 180.066 34.0509C180.602 34.0025 181.09 33.9541 181.626 33.809C182.455 33.6154 183.137 33.3251 183.673 32.938C184.21 32.5509 184.649 32.1154 184.99 31.6315C185.331 31.1477 185.575 30.6154 185.721 30.0348C185.867 29.4541 186.014 28.8735 186.062 28.2445C186.16 27.4219 186.257 26.6477 186.306 25.8251C186.355 25.0509 186.355 24.2283 186.355 23.4541C186.355 22.6316 186.355 21.8574 186.306 21.0348C186.257 20.2122 186.16 19.438 186.062 18.6154C185.965 17.938 185.819 17.2606 185.575 16.6315C185.38 16.0025 185.039 15.4219 184.6 14.938C184.21 14.5025 183.771 14.1638 183.283 13.9219C182.796 13.6799 182.308 13.4864 181.772 13.3896C181.236 13.2928 180.748 13.2445 180.212 13.1961C179.725 13.1961 179.237 13.1961 178.798 13.1961H175.776V34.0993Z" fill="white"></path><path d="M207.952 23.7921C207.952 23.3083 207.952 22.8728 207.904 22.4373C207.855 22.0018 207.757 21.6631 207.562 21.3244C207.416 21.0341 207.172 20.8405 206.977 20.6953C206.734 20.5502 206.49 20.405 206.246 20.3566C206.002 20.3083 205.807 20.2599 205.612 20.2115C205.417 20.2115 205.271 20.2115 205.174 20.2115C204.491 20.2115 203.906 20.3566 203.516 20.5986C203.126 20.8405 202.833 21.0824 202.687 21.3244C202.346 21.7115 202.151 22.1953 202.102 22.6792C202.053 23.2115 202.005 23.647 201.956 24.0341H195.667C195.667 23.5986 195.667 23.0663 195.716 22.4373C195.764 21.8566 195.959 21.2276 196.301 20.647C196.691 19.9695 197.227 19.3889 197.909 18.905C198.592 18.4695 199.323 18.0824 200.152 17.8405C200.981 17.5986 201.858 17.405 202.785 17.3082C203.711 17.2115 204.637 17.1631 205.564 17.1631C206.197 17.1631 206.782 17.1631 207.416 17.2115C208.001 17.2599 208.635 17.3083 209.269 17.4534C209.903 17.5502 210.536 17.6953 211.121 17.9373C211.755 18.1308 212.291 18.4212 212.73 18.8566C213.169 19.2437 213.51 19.6308 213.754 20.1147C213.998 20.5502 214.193 21.0341 214.29 21.4695C214.388 21.9534 214.436 22.3889 214.485 22.8244C214.485 23.2599 214.485 23.6953 214.485 24.1308V33.8082C214.485 34.3405 214.485 34.8244 214.485 35.2115C214.485 35.5986 214.534 35.9857 214.631 36.3728C214.729 36.8083 214.826 37.0986 214.924 37.2437C215.021 37.3889 215.168 37.534 215.314 37.6308V37.8728H209.903C209.512 37.8728 209.171 37.8728 208.927 37.8244C208.635 37.776 208.391 37.6792 208.196 37.5341C208.001 37.3889 207.855 37.147 207.806 36.8083C207.709 36.5179 207.66 36.0824 207.66 35.5502C207.514 35.7437 207.221 35.9857 206.88 36.276C206.539 36.5663 206.051 36.905 205.515 37.1953C204.979 37.4857 204.296 37.776 203.565 38.0179C202.785 38.2599 201.907 38.3566 200.932 38.3566C200.103 38.3566 199.275 38.2115 198.446 37.9695C197.617 37.7276 196.934 37.2921 196.398 36.6631C196.008 36.2276 195.667 35.5986 195.374 34.8728C195.082 34.147 194.984 33.276 194.984 32.3082C194.984 32.1147 194.984 31.8244 195.033 31.4373C195.082 31.0502 195.131 30.6147 195.326 30.1792C195.472 29.7437 195.716 29.2599 196.057 28.776C196.398 28.2921 196.837 27.8566 197.471 27.4695C198.251 26.9373 199.226 26.5986 200.347 26.3566C201.468 26.1631 202.931 25.9212 204.735 25.7276L207.952 25.3889V23.7921ZM207.952 28.0502C207.465 28.0986 207.075 28.147 206.734 28.147C206.392 28.1953 206.1 28.1953 205.856 28.2437C205.612 28.2921 205.417 28.2921 205.222 28.3405C205.027 28.3889 204.881 28.3889 204.686 28.4373C203.906 28.6308 203.223 28.9695 202.59 29.4534C202.005 29.9373 201.663 30.7599 201.663 31.8244C201.663 32.3082 201.712 32.7437 201.81 33.1792C202.005 33.8566 202.395 34.3405 202.833 34.6308C203.321 34.8728 203.808 35.0179 204.394 35.0179C204.637 35.0179 205.027 34.9695 205.515 34.8728C206.002 34.776 206.441 34.5824 206.88 34.1953C207.416 33.7599 207.709 33.2276 207.806 32.5986C207.904 32.0179 207.952 31.4857 207.952 31.0018V28.0502Z" fill="white"></path><path d="M224.529 9.42188H217.996V37.8735H224.529V9.42188Z" fill="white"></path><path d="M235.986 20.5513V30.1804C235.986 30.761 235.986 31.2933 236.035 31.7772C236.083 32.261 236.132 32.6965 236.278 33.0836C236.425 33.4223 236.668 33.761 236.961 33.9546C237.302 34.1481 237.741 34.2933 238.326 34.2933C238.667 34.2933 238.96 34.2933 239.252 34.1965C239.496 34.1481 239.74 34.0997 239.984 34.0513V37.5836C239.545 37.7288 238.911 37.8739 238.18 38.0191C237.448 38.1643 236.571 38.261 235.596 38.261C234.036 38.261 232.866 38.0191 232.037 37.5836C231.208 37.1481 230.623 36.5675 230.233 35.8901C229.843 35.2126 229.648 34.4384 229.599 33.5675C229.551 32.6965 229.502 31.8739 229.502 31.0514V20.5997H226.967V17.7449H229.502V13.7772L236.035 12.4707V17.6965H239.447V20.5513H235.986Z" fill="white"></path><path d="M262.604 27.4701C262.604 27.9056 262.604 28.4862 262.555 29.1636C262.507 29.841 262.458 30.5669 262.312 31.2927C262.165 32.0185 261.97 32.7927 261.629 33.5185C261.337 34.2927 260.898 34.9701 260.313 35.5991C259.679 36.2765 258.948 36.8572 258.119 37.2443C257.339 37.6314 256.51 37.9217 255.779 38.0669C254.999 38.2604 254.316 38.3572 253.634 38.3572C253 38.4056 252.464 38.4056 252.122 38.4056C251.391 38.4056 250.66 38.3572 249.88 38.3088C249.1 38.2604 248.368 38.1152 247.637 37.8733C246.37 37.5346 245.346 37.0023 244.566 36.3249C243.786 35.6475 243.201 34.8733 242.762 34.0023C242.323 33.1314 242.079 32.212 241.933 31.2443C241.787 30.2765 241.689 29.2604 241.689 28.2927C241.689 27.7604 241.689 27.1798 241.738 26.4056C241.787 25.6798 241.884 24.9056 242.079 24.083C242.274 23.2604 242.567 22.4862 242.957 21.6636C243.347 20.8894 243.932 20.1636 244.663 19.4862C245.297 18.9056 246.028 18.4217 246.808 18.1314C247.588 17.7927 248.368 17.5507 249.1 17.4056C249.88 17.2604 250.562 17.1636 251.196 17.1636C251.83 17.1152 252.317 17.1152 252.659 17.1152C252.951 17.1152 253.439 17.1152 254.072 17.1636C254.706 17.212 255.389 17.3088 256.169 17.5023C256.949 17.6959 257.68 17.9862 258.509 18.3249C259.289 18.712 260.02 19.2443 260.605 19.9701C261.093 20.5507 261.483 21.1798 261.727 21.8572C262.019 22.5346 262.214 23.212 262.312 23.8894C262.458 24.5668 262.507 25.1959 262.555 25.8249C262.555 26.5023 262.604 27.0346 262.604 27.4701ZM255.925 27.3733C255.925 26.5023 255.876 25.583 255.779 24.712C255.779 24.3733 255.681 23.9862 255.633 23.5023C255.584 23.0185 255.389 22.5346 255.145 22.0507C254.901 21.5669 254.56 21.1314 254.121 20.7927C253.682 20.4539 253.049 20.2604 252.269 20.2604C251.635 20.2604 251.099 20.4056 250.562 20.6475C250.172 20.8894 249.831 21.1798 249.587 21.5669C249.344 21.9539 249.149 22.2927 249.002 22.6798C248.856 23.0668 248.759 23.4056 248.71 23.7927C248.661 24.1798 248.612 24.4701 248.612 24.7604C248.564 25.4378 248.515 26.0668 248.466 26.5991C248.417 27.1314 248.417 27.6152 248.417 28.0507C248.417 28.9701 248.466 29.8894 248.515 30.8088C248.563 31.1475 248.612 31.5346 248.661 32.0668C248.71 32.5991 248.905 33.083 249.149 33.6152C249.392 34.1475 249.734 34.583 250.221 34.9217C250.709 35.3088 251.342 35.4539 252.171 35.4539C252.707 35.4539 253.244 35.3088 253.731 35.1152C254.17 34.8733 254.511 34.583 254.755 34.1959C254.999 33.8572 255.194 33.4217 255.389 33.0346C255.535 32.5991 255.633 32.212 255.681 31.8249C255.73 31.4378 255.779 31.0991 255.828 30.8572C255.876 30.2765 255.925 29.7443 255.925 29.1636C255.925 28.5346 255.925 27.9539 255.925 27.3733Z" fill="white"></path><path d="M283.861 37.8736H277.328V25.5833V24.4704C277.328 24.1317 277.279 23.793 277.23 23.4543C277.23 23.3091 277.181 23.0672 277.133 22.7285C277.084 22.4382 276.938 22.0995 276.743 21.8091C276.548 21.5188 276.255 21.2769 275.914 21.0349C275.524 20.793 275.036 20.6962 274.451 20.6962C274.11 20.6962 273.818 20.7446 273.574 20.793C273.281 20.8414 273.086 20.9382 272.891 21.0349C272.453 21.2285 272.111 21.422 271.916 21.7124C271.672 21.9543 271.526 22.2446 271.38 22.5349C271.234 22.8253 271.185 23.1156 271.136 23.4059C271.087 23.6962 271.087 23.9866 271.087 24.2285V37.8736H264.555V17.6962H271.087V19.9704C271.819 19.3414 272.745 18.7124 273.818 18.1317C274.89 17.5511 276.255 17.2607 277.864 17.2607C278.547 17.2607 279.132 17.3091 279.668 17.4543C280.204 17.5511 280.643 17.6962 281.033 17.8898C281.423 18.0349 281.715 18.2285 281.959 18.422C282.203 18.6156 282.398 18.8091 282.544 18.9543C283.178 19.6317 283.568 20.4543 283.665 21.2769C283.763 22.1478 283.861 22.922 283.861 23.6478V37.8736Z" fill="white"></path><path d="M32.64 37.9228H23.4746L20.647 24.4712C20.5008 23.8905 20.4033 23.3582 20.3545 22.9711C20.3057 22.5357 20.2082 22.1486 20.1595 21.7615C20.1107 21.3744 20.0132 20.9389 19.9645 20.455C19.9157 20.0195 19.867 19.4389 19.7695 18.7615C19.672 19.3905 19.5745 19.9228 19.477 20.3582C19.3795 20.7937 19.3307 21.1808 19.2332 21.5195C19.1845 21.8582 19.0869 22.2453 18.9894 22.6808C18.8919 23.0679 18.7944 23.6002 18.6482 24.1808L15.333 37.9711H6.16764L0.951172 9.51953H8.06897L11.0429 28.1002C11.1404 28.5841 11.1891 28.9712 11.2379 29.3099C11.2866 29.6002 11.3354 29.9389 11.3354 30.1808C11.3841 30.4711 11.4329 30.7615 11.4816 31.1002C11.5304 31.4389 11.5791 31.8744 11.6766 32.3582C11.7741 31.8744 11.8229 31.4389 11.9204 31.1002C12.0179 30.7615 12.0666 30.4228 12.1154 30.1324C12.1642 29.8421 12.2129 29.5034 12.3104 29.2615C12.3592 28.9711 12.4567 28.6808 12.5542 28.2937L16.8443 9.51953H22.7921L26.6435 27.5195C26.741 27.955 26.7898 28.3905 26.8385 28.7292C26.8873 29.0679 26.936 29.4066 27.0335 29.7453C27.0823 30.0841 27.1798 30.4228 27.2285 30.8582C27.2773 31.2453 27.3748 31.7292 27.4723 32.3099C27.5698 31.9228 27.6186 31.5841 27.6673 31.2937C27.7161 31.0034 27.7648 30.7615 27.7648 30.5679C27.8136 30.3744 27.8136 30.1324 27.8623 29.8421C27.9111 29.6002 27.9598 29.2615 28.0573 28.8744L31.665 9.51953H38.344L32.64 37.9228Z" fill="white"></path><path d="M50.8725 23.8415C50.8725 23.3576 50.8725 22.9221 50.8238 22.4866C50.775 22.0512 50.6775 21.7124 50.4825 21.3737C50.3362 21.0834 50.1412 20.8899 49.8975 20.7447C49.6537 20.5995 49.4099 20.4544 49.1662 20.406C48.9224 20.3576 48.7274 20.3092 48.5324 20.2608C48.3374 20.2608 48.1911 20.2608 48.0936 20.2608C47.4111 20.2608 46.8261 20.406 46.4361 20.6479C46.046 20.8899 45.7535 21.1318 45.5585 21.3737C45.2173 21.7608 45.0223 22.2447 44.9735 22.7286C44.9247 23.2608 44.876 23.6963 44.8272 24.0834H38.5382C38.5382 23.6479 38.5382 23.1157 38.587 22.4866C38.6357 21.906 38.8307 21.277 39.172 20.6479C39.562 19.9705 40.0983 19.3899 40.7808 18.906C41.4634 18.4705 42.1946 18.0834 43.0234 17.8415C43.8522 17.5995 44.7297 17.406 45.656 17.3092C46.5823 17.2125 47.5086 17.1641 48.4349 17.1641C49.0687 17.1641 49.6537 17.1641 50.2875 17.2125C50.8725 17.2608 51.5063 17.3092 52.1401 17.4544C52.7738 17.5512 53.4076 17.6963 53.9926 17.9383C54.6264 18.1318 55.1627 18.4221 55.6015 18.8576C56.0402 19.2447 56.3815 19.6318 56.6252 20.1157C56.869 20.5512 57.064 21.035 57.1615 21.4705C57.259 21.906 57.3078 22.3899 57.3565 22.8254C57.3565 23.2608 57.3565 23.6963 57.3565 24.1318V33.8092C57.3565 34.3415 57.3565 34.8253 57.3565 35.2124C57.3565 35.5995 57.4053 35.9866 57.5028 36.3737C57.6003 36.8092 57.6978 37.0995 57.7953 37.2447C57.9416 37.3899 58.0391 37.535 58.1853 37.6318V37.8737H52.8713C52.4813 37.8737 52.1401 37.8737 51.8963 37.8254C51.6038 37.777 51.36 37.7286 51.165 37.535C50.97 37.3899 50.8238 37.1479 50.775 36.8092C50.6775 36.5189 50.6775 36.0834 50.6775 35.5512C50.5312 35.7447 50.2387 35.9866 49.8975 36.277C49.5562 36.5673 49.0687 36.906 48.5324 37.1963C47.9961 37.4866 47.3136 37.777 46.5823 38.0189C45.8023 38.2608 44.9247 38.3576 43.9497 38.3576C43.1209 38.3576 42.2921 38.2124 41.4634 37.9705C40.6346 37.7286 39.952 37.2931 39.4158 36.6641C39.0257 36.1802 38.6845 35.5995 38.392 34.8737C38.0995 34.1479 38.002 33.277 38.002 32.3092C38.002 32.1157 38.002 31.8254 38.0507 31.4383C38.0995 31.0512 38.1482 30.6157 38.3432 30.1802C38.4895 29.7447 38.7332 29.2608 39.0745 28.777C39.4158 28.2931 39.8545 27.8576 40.4883 27.4705C41.2683 26.9382 42.2434 26.5995 43.3647 26.3576C44.486 26.1641 45.9485 25.9221 47.7524 25.7286L50.97 25.3899V23.8415H50.8725ZM50.8725 28.0995C50.385 28.1479 49.995 28.1963 49.6537 28.1963C49.3124 28.2447 49.0199 28.2447 48.7762 28.2931C48.5324 28.3415 48.3374 28.3415 48.1424 28.3899C47.9474 28.4383 47.8011 28.4383 47.6061 28.4866C46.8261 28.6802 46.1436 29.0189 45.5098 29.5028C44.876 29.9866 44.5835 30.7608 44.5835 31.8737C44.5835 32.3576 44.6322 32.7931 44.7297 33.2286C44.9247 33.906 45.3148 34.3899 45.7535 34.6802C46.2411 34.9221 46.7286 35.0673 47.3136 35.0673C47.5574 35.0673 47.8986 35.0189 48.3861 34.9705C48.8737 34.8737 49.3124 34.6802 49.7512 34.2931C50.2875 33.8576 50.58 33.3254 50.6775 32.7447C50.775 32.1641 50.8238 31.6318 50.8238 31.1479V28.0995H50.8725Z" fill="white"></path><path d="M79.931 17.7452L72.9595 39.1807C72.6182 40.1968 72.277 41.1646 71.9357 42.0355C71.5944 42.9065 71.1069 43.6807 70.4731 44.3097C69.8881 44.9388 69.1081 45.471 68.133 45.8097C67.2067 46.1968 65.9879 46.342 64.4766 46.342C64.3304 46.342 64.1354 46.342 63.8428 46.342C63.5503 46.342 63.2091 46.2936 62.819 46.2936C62.429 46.2452 61.9903 46.2452 61.5027 46.1484C61.0152 46.1 60.5765 46.0033 60.1377 45.9065V41.4549C60.3327 41.5033 60.7227 41.6001 61.3077 41.6968C61.844 41.7936 62.429 41.842 63.0628 41.842C63.7453 41.842 64.2816 41.7452 64.6716 41.5033C65.0616 41.2613 65.3542 41.0194 65.5979 40.6807C65.7929 40.342 65.9392 40.0033 66.0367 39.6646C66.0854 39.3259 66.1342 38.9872 66.1829 38.7452L66.2317 38.1646V37.5355L59.5039 17.6484H66.3292L70.0831 32.4065L73.6908 17.6484H79.931V17.7452Z" fill="white"></path><path d="M101.331 37.9219H94.7984V25.6316V24.5187C94.7984 24.18 94.7497 23.8413 94.7009 23.5026C94.7009 23.3574 94.6522 23.1155 94.6034 22.7768C94.5547 22.4865 94.4084 22.1477 94.2134 21.8574C94.0184 21.5671 93.7259 21.3252 93.3846 21.0832C93.0434 20.8413 92.5071 20.7445 91.9221 20.7445C91.5808 20.7445 91.2883 20.7929 91.0445 20.8413C90.752 20.8897 90.557 20.9865 90.362 21.0832C89.9232 21.2768 89.582 21.5187 89.387 21.7607C89.1432 22.0026 88.9969 22.2929 88.8507 22.5832C88.7532 22.8736 88.6557 23.1639 88.6069 23.4542C88.5582 23.7445 88.5582 24.0348 88.5582 24.3252V37.9703H82.0254V17.7929H88.5582V20.0671C89.2895 19.4381 90.2157 18.809 91.2883 18.2284C92.3608 17.6477 93.7259 17.3574 95.3347 17.3574C96.0172 17.3574 96.6023 17.4058 97.1385 17.551C97.6748 17.6477 98.1136 17.7929 98.5036 17.9865C98.8936 18.1316 99.1861 18.3252 99.4299 18.5187C99.6736 18.7123 99.8686 18.9058 100.015 19.051C100.649 19.7768 101.039 20.551 101.136 21.3736C101.234 22.2445 101.331 23.0187 101.331 23.7445V37.9219Z" fill="white"></path><path d="M124.293 31.4865C124.244 31.8252 124.195 32.2123 124.147 32.6477C124.098 33.0832 123.952 33.5671 123.757 34.051C123.562 34.5348 123.269 35.0187 122.879 35.5026C122.489 35.9865 121.953 36.4703 121.319 36.9058C120.783 37.2445 120.198 37.4865 119.564 37.7284C118.93 37.9219 118.296 38.1155 117.663 38.2123C117.029 38.309 116.444 38.4058 115.859 38.4542C115.274 38.5026 114.786 38.5026 114.396 38.5026C112.592 38.5026 111.081 38.309 109.862 37.8735C108.595 37.4381 107.62 36.9542 106.937 36.3252C106.255 35.7445 105.718 35.0671 105.377 34.2929C104.987 33.5187 104.743 32.7445 104.548 31.9703C104.353 31.1961 104.256 30.4703 104.256 29.8413C104.207 29.1639 104.207 28.6316 104.207 28.2445C104.207 27.809 104.207 27.18 104.256 26.5026C104.305 25.7768 104.402 25.051 104.597 24.2284C104.792 23.4058 105.085 22.6316 105.523 21.809C105.962 20.9865 106.547 20.2607 107.327 19.5832C108.107 18.9058 109.082 18.3736 110.301 17.9865C111.471 17.551 112.934 17.3574 114.689 17.3574C115.42 17.3574 116.151 17.4058 116.883 17.5026C117.614 17.5994 118.345 17.7445 119.028 17.9865C119.905 18.2768 120.636 18.6155 121.222 19.051C121.807 19.4865 122.294 19.9219 122.635 20.4542C123.025 20.9865 123.269 21.5187 123.513 22.0994C123.708 22.68 123.903 23.309 124 23.9381C124.195 24.9058 124.293 25.7768 124.293 26.5026C124.293 27.2768 124.293 27.9058 124.244 28.3897H110.837C110.837 29.1639 110.837 29.9865 110.886 30.809C110.935 31.6316 111.081 32.4058 111.276 33.0832C111.52 33.7606 111.861 34.3413 112.397 34.7768C112.885 35.2606 113.616 35.4542 114.494 35.4542C114.981 35.4542 115.469 35.3574 115.908 35.2123C116.346 35.0187 116.688 34.8252 116.931 34.4865C117.37 34.051 117.614 33.5187 117.711 32.8897C117.809 32.309 117.858 31.8252 117.858 31.5349H124.293V31.4865ZM117.809 25.4865C117.809 25.051 117.76 24.5187 117.711 23.8897C117.663 23.309 117.516 22.7284 117.321 22.1961C117.126 21.6639 116.785 21.2284 116.346 20.8413C115.908 20.4542 115.323 20.309 114.591 20.309C113.762 20.309 113.08 20.5026 112.641 20.9381C112.154 21.3736 111.812 21.8574 111.569 22.4381C111.325 23.0187 111.179 23.5994 111.081 24.18C111.032 24.7607 110.984 25.1961 110.935 25.4865H117.809Z" fill="white"></path><path d="M81.0996 47.4534C81.0996 44.1147 83.4885 41.1631 86.9986 41.1631C88.9974 41.1631 90.2162 41.7437 91.3863 42.7599L90.5088 43.776C89.5825 42.9534 88.6074 42.3728 86.9499 42.3728C84.366 42.3728 82.4647 44.647 82.4647 47.3566V47.405C82.4647 50.3082 84.2685 52.4373 87.0961 52.4373C88.4612 52.4373 89.68 51.905 90.5088 51.2276V48.2276H86.9499V47.0179H91.7763V51.8566C90.7038 52.8728 89.0462 53.6953 87.0474 53.6953C83.391 53.647 81.0996 50.8889 81.0996 47.4534Z" fill="white"></path><path d="M104.939 41.2607H106.158L111.52 53.4543H110.107L108.742 50.2607H102.355L100.941 53.4543H99.5762L104.939 41.2607ZM108.254 49.0511L105.573 42.8575L102.891 49.0511H108.254Z" fill="white"></path><path d="M119.711 41.3574H124.781C126.244 41.3574 127.365 41.7929 128.096 42.5671C128.681 43.1477 129.023 44.0187 129.023 44.9381V44.9865C129.023 46.9703 127.658 48.18 125.854 48.5187L129.461 53.4542H127.853L124.44 48.7606H124.391H121.076V53.4542H119.76V41.3574H119.711ZM124.635 47.5026C126.39 47.5026 127.658 46.5832 127.658 45.0348V44.9865C127.658 43.4865 126.536 42.6155 124.635 42.6155H121.027V47.5026H124.635Z" fill="white"></path><path d="M142.039 41.2607H143.257L148.62 53.4543H147.206L145.841 50.2607H139.455L138.041 53.4543H136.676L142.039 41.2607ZM145.305 49.0511L142.624 42.8575L139.942 49.0511H145.305Z" fill="white"></path><path d="M155.592 47.4544C155.592 44.1157 157.981 41.1641 161.491 41.1641C163.49 41.1641 164.708 41.7447 165.878 42.7608L165.001 43.777C164.075 42.9544 163.1 42.3737 161.442 42.3737C158.858 42.3737 156.957 44.6479 156.957 47.3576V47.406C156.957 50.3092 158.761 52.4382 161.588 52.4382C162.953 52.4382 164.172 51.906 165.001 51.2286V48.2286H161.442V47.0189H166.269V51.8576C165.196 52.8737 163.538 53.6963 161.54 53.6963C157.883 53.6479 155.592 50.8899 155.592 47.4544Z" fill="white"></path><path d="M175.143 41.3574H183.625V42.6155H176.459V46.7284H182.845V47.9865H176.459V52.1961H183.723V53.4542H175.143V41.3574Z" fill="white"></path><path d="M198.738 41.3574H202.833C206.539 41.3574 209.074 43.9703 209.074 47.3574V47.4058C209.074 50.7929 206.539 53.4542 202.833 53.4542H198.738V41.3574ZM202.833 52.1961C205.807 52.1961 207.709 50.1155 207.709 47.4542V47.4058C207.709 44.7445 205.807 42.6155 202.833 42.6155H200.103V52.1961H202.833Z" fill="white"></path><path d="M217.217 47.4544C217.217 44.0673 219.654 41.1641 223.213 41.1641C226.772 41.1641 229.161 44.0673 229.161 47.406C229.161 47.406 229.161 47.406 229.161 47.4544C229.161 50.7931 226.723 53.6963 223.165 53.6963C219.606 53.6963 217.217 50.7931 217.217 47.4544ZM227.796 47.4544C227.796 44.6479 225.846 42.4221 223.165 42.4221C220.483 42.4221 218.582 44.6479 218.582 47.406V47.4544C218.582 50.2124 220.532 52.4382 223.213 52.4382C225.895 52.3899 227.796 50.1641 227.796 47.4544Z" fill="white"></path><path d="M237.303 47.4544C237.303 44.0673 239.74 41.1641 243.299 41.1641C246.858 41.1641 249.296 44.0673 249.296 47.406C249.296 47.406 249.296 47.406 249.296 47.4544C249.296 50.7931 246.858 53.6963 243.299 53.6963C239.692 53.6479 237.303 50.7931 237.303 47.4544ZM247.931 47.4544C247.931 44.6479 245.981 42.4221 243.299 42.4221C240.618 42.4221 238.717 44.6479 238.717 47.406V47.4544C238.717 50.2124 240.667 52.4382 243.348 52.4382C245.981 52.3899 247.931 50.1641 247.931 47.4544Z" fill="white"></path><path d="M257.924 41.3574H262.994C264.457 41.3574 265.578 41.7929 266.358 42.5671C266.943 43.1477 267.284 44.0187 267.284 44.9381V44.9865C267.284 46.9703 265.919 48.18 264.115 48.5187L267.723 53.4542H266.114L262.702 48.7606H262.653H259.338V53.4542H258.021V41.3574H257.924ZM262.897 47.5026C264.652 47.5026 265.919 46.5832 265.919 45.0348V44.9865C265.919 43.4865 264.798 42.6155 262.897 42.6155H259.289V47.5026H262.897Z" fill="white"></path><path d="M275.133 51.7129L275.962 50.6967C277.18 51.858 278.35 52.3903 280.008 52.3903C281.568 52.3903 282.641 51.5193 282.641 50.358V50.3097C282.641 49.1968 282.056 48.5677 279.569 47.9871C276.888 47.4064 275.62 46.4871 275.62 44.5032C275.62 42.6161 277.229 41.2129 279.472 41.2129C281.178 41.2129 282.397 41.6967 283.616 42.7129L282.836 43.7774C281.763 42.858 280.642 42.4709 279.472 42.4709C277.96 42.4709 276.985 43.3419 276.985 44.4064V44.4548C276.985 45.6161 277.57 46.2451 280.154 46.8258C282.787 47.4064 284.006 48.3742 284.006 50.2613V50.3097C284.006 52.3903 282.348 53.7451 280.008 53.7451C278.107 53.6484 276.547 52.9709 275.133 51.7129Z" fill="white"></path><path d="M289.173 34.583V35.1637H288.101V37.9701H287.418V35.1637H286.346V34.583H289.173ZM292.878 37.9701L292.732 35.9862C292.732 35.7443 292.732 35.4056 292.732 35.0185H292.683C292.586 35.3088 292.488 35.6959 292.391 36.0346L291.757 37.9217H291.075L290.441 35.9862C290.392 35.7443 290.295 35.3088 290.197 35.0185H290.148C290.148 35.3088 290.148 35.6475 290.148 35.9862L290.002 37.9701H289.368L289.612 34.583H290.636L291.221 36.2282C291.318 36.4701 291.367 36.7604 291.465 37.0991C291.562 36.8088 291.611 36.5185 291.708 36.2282L292.293 34.583H293.269L293.512 37.9701H292.878Z" fill="white"></path><path d="M163.295 21.7598H129.656V29.4533H163.295V21.7598Z" fill="#FFDF00"></path><path d="M163.295 30.2773H129.656V37.8741H163.295V30.2773Z" fill="#FFDF00"></path><path d="M129.656 20.9868H163.295V9.4707H129.656V20.9868ZM145.159 18.5191H132.435V11.9868H145.159V18.5191ZM160.565 18.5191H147.841V11.9868H160.565V18.5191Z" fill="#FFDF00"></path></g><defs><clipPath id="clip0_2926_64969"><rect width="293" height="54" fill="white" transform="translate(0.853516 0.338867)"></rect></clipPath></defs></svg>